<svg width="814" height="1040" viewBox="0 0 814 1040" fill="none" xmlns="http://www.w3.org/2000/svg">
<g clip-path="url(#clip0_16_418)">
<path d="M547.171 664.012C570.438 664.012 589.301 645.122 589.301 621.82C589.301 598.518 570.438 579.628 547.171 579.628C523.903 579.628 505.041 598.518 505.041 621.82C505.041 645.122 523.903 664.012 547.171 664.012Z" fill="#17191D"/>
<path d="M628.34 541.94C662.282 507.948 662.282 452.837 628.34 418.846C594.398 384.854 539.368 384.854 505.426 418.846C471.485 452.837 471.485 507.948 505.426 541.94C539.368 575.932 594.398 575.932 628.34 541.94Z" fill="#17191D"/>
<path d="M591.955 542.31C639.956 542.31 678.869 503.34 678.869 455.268C678.869 407.196 639.956 368.226 591.955 368.226C543.954 368.226 505.041 407.196 505.041 455.268C505.041 503.34 543.954 542.31 591.955 542.31Z" fill="#FF0B53"/>
<path d="M561.769 1040C609.77 1040 648.683 1001.03 648.683 952.958C648.683 904.886 609.77 865.917 561.769 865.917C513.768 865.917 474.855 904.886 474.855 952.958C474.855 1001.03 513.768 1040 561.769 1040Z" fill="#FF0B53"/>
<path d="M406.308 174.083C454.309 174.083 493.222 135.114 493.222 87.0417C493.222 38.9699 454.309 0 406.308 0C358.307 0 319.395 38.9699 319.395 87.0417C319.395 135.114 358.307 174.083 406.308 174.083Z" fill="#FF0B53"/>
<path d="M760.359 253.322C808.286 205.324 808.286 127.504 760.359 79.5058C712.432 31.5079 634.726 31.5079 586.799 79.5058C538.871 127.504 538.871 205.324 586.799 253.322C634.726 301.319 712.432 301.319 760.359 253.322Z" stroke="#FF0B53" stroke-width="20" stroke-miterlimit="10"/>
<path d="M463.321 767.568C482.687 722.42 461.841 670.097 416.759 650.702C371.677 631.307 319.431 652.184 300.064 697.333C280.698 742.481 301.544 794.804 346.626 814.199C391.709 833.594 443.955 812.717 463.321 767.568Z" stroke="#FF0B53" stroke-width="20" stroke-miterlimit="10"/>
<path d="M694.139 643.457V823.902L547.171 733.67L694.139 643.457Z" fill="#17191D"/>
<path d="M654.345 643.457V823.902L507.377 733.67L654.345 643.457Z" stroke="#17191D" stroke-miterlimit="10"/>
<path d="M359.029 117.007C359.029 127.143 346.077 127.143 346.077 137.279C346.077 147.415 359.029 147.415 359.029 157.551C359.029 167.686 346.077 167.686 346.077 177.822C346.077 187.958 359.029 187.958 359.029 198.094C359.029 208.23 346.077 208.23 346.077 218.366C346.077 228.502 359.029 228.502 359.029 238.638C359.029 248.774 346.077 248.774 346.077 258.928C346.077 269.064 359.029 269.064 359.029 279.218" stroke="#17191D" stroke-miterlimit="10"/>
<path d="M658.999 450.891V444.228L743.489 483.691V490.354L658.999 450.891Z" fill="#17191D"/>
<path d="M658.999 472.528V465.865L743.489 505.328V511.99L658.999 472.528Z" fill="#17191D"/>
<path d="M658.999 494.182V487.519L743.489 526.964V533.627L658.999 494.182Z" fill="#17191D"/>
<path d="M658.999 515.818V509.155L743.489 548.618V555.281L658.999 515.818Z" fill="#17191D"/>
<path d="M658.999 537.454V530.792L743.489 570.254V576.917L658.999 537.454Z" fill="#17191D"/>
<path d="M658.999 559.108V552.446L743.489 591.891V598.554L658.999 559.108Z" fill="#17191D"/>
<path d="M658.999 580.745V574.082L743.489 613.545V620.208L658.999 580.745Z" fill="#17191D"/>
<path d="M658.999 602.381V595.719L743.489 635.181V641.844L658.999 602.381Z" fill="#17191D"/>
<path d="M281.387 251.858C231.543 301.775 231.543 382.721 281.387 432.639C331.232 482.557 412.059 482.557 461.903 432.639L281.387 251.858Z" fill="#FF0B53"/>
<path d="M539.635 410.35C611.129 408.244 667.382 348.494 665.279 276.894C663.177 205.295 603.514 148.959 532.02 151.065C460.526 153.171 404.273 212.921 406.376 284.52C408.479 356.12 468.141 412.455 539.635 410.35Z" stroke="#17191D" stroke-width="2" stroke-linecap="round" stroke-linejoin="round"/>
<path d="M539.435 389.831C599.625 387.822 646.793 337.329 644.787 277.05C642.782 216.771 592.362 169.534 532.172 171.542C471.982 173.551 424.814 224.045 426.82 284.323C428.825 344.602 479.245 391.839 539.435 389.831Z" stroke="#17191D" stroke-width="2" stroke-linecap="round" stroke-linejoin="round"/>
<path d="M550.011 368.285C598.31 360.435 631.109 314.86 623.27 266.49C615.432 218.121 569.924 185.273 521.626 193.124C473.327 200.974 440.528 246.548 448.367 294.918C456.205 343.287 501.713 376.135 550.011 368.285Z" stroke="#17191D" stroke-width="2" stroke-linecap="round" stroke-linejoin="round"/>
<path d="M550.225 347.387C587.004 339.409 610.36 303.082 602.393 266.249C594.427 229.417 558.153 206.026 521.375 214.004C484.596 221.983 461.24 258.31 469.207 295.142C477.173 331.975 513.447 355.366 550.225 347.387Z" stroke="#17191D" stroke-width="2" stroke-linecap="round" stroke-linejoin="round"/>
<path d="M554.068 324.828C578.4 314.734 589.955 286.798 579.876 262.43C569.797 238.062 541.902 226.491 517.57 236.584C493.238 246.678 481.683 274.615 491.762 298.983C501.841 323.35 529.736 334.922 554.068 324.828Z" stroke="#17191D" stroke-width="2" stroke-linecap="round" stroke-linejoin="round"/>
<path d="M318.916 441.482C318.916 440.277 317.943 439.302 316.74 439.302C315.537 439.302 314.563 440.277 314.563 441.482C314.563 442.687 315.537 443.661 316.74 443.661C317.943 443.661 318.916 442.687 318.916 441.482Z" fill="#EAEAEA"/>
<path d="M354.73 441.482C354.73 440.277 353.757 439.302 352.553 439.302C351.35 439.302 350.377 440.277 350.377 441.482C350.377 442.687 351.35 443.661 352.553 443.661C353.757 443.661 354.73 442.687 354.73 441.482Z" fill="#EAEAEA"/>
<path d="M390.56 441.482C390.56 440.277 389.587 439.302 388.383 439.302C387.18 439.302 386.207 440.277 386.207 441.482C386.207 442.687 387.18 443.661 388.383 443.661C389.587 443.661 390.56 442.687 390.56 441.482Z" fill="#EAEAEA"/>
<path d="M426.373 441.482C426.373 440.277 425.4 439.302 424.197 439.302C422.994 439.302 422.021 440.277 422.021 441.482C422.021 442.687 422.994 443.661 424.197 443.661C425.4 443.661 426.373 442.687 426.373 441.482Z" fill="#EAEAEA"/>
<path d="M462.203 441.482C462.203 440.277 461.23 439.302 460.027 439.302C458.824 439.302 457.851 440.277 457.851 441.482C457.851 442.687 458.824 443.661 460.027 443.661C461.23 443.661 462.203 442.687 462.203 441.482Z" fill="#17191D"/>
<path d="M318.916 474.583C318.916 473.378 317.943 472.403 316.74 472.403C315.537 472.403 314.563 473.378 314.563 474.583C314.563 475.788 315.537 476.762 316.74 476.762C317.943 476.762 318.916 475.788 318.916 474.583Z" fill="#17191D"/>
<path d="M354.73 474.583C354.73 473.378 353.757 472.403 352.553 472.403C351.35 472.403 350.377 473.378 350.377 474.583C350.377 475.788 351.35 476.762 352.553 476.762C353.757 476.762 354.73 475.788 354.73 474.583Z" fill="#17191D"/>
<path d="M390.56 474.583C390.56 473.378 389.587 472.403 388.383 472.403C387.18 472.403 386.207 473.378 386.207 474.583C386.207 475.788 387.18 476.762 388.383 476.762C389.587 476.762 390.56 475.788 390.56 474.583Z" fill="#17191D"/>
<path d="M426.373 474.583C426.373 473.378 425.4 472.403 424.197 472.403C422.994 472.403 422.021 473.378 422.021 474.583C422.021 475.788 422.994 476.762 424.197 476.762C425.4 476.762 426.373 475.788 426.373 474.583Z" fill="#17191D"/>
<path d="M462.203 474.583C462.203 473.378 461.23 472.403 460.027 472.403C458.824 472.403 457.851 473.378 457.851 474.583C457.851 475.788 458.824 476.762 460.027 476.762C461.23 476.762 462.203 475.788 462.203 474.583Z" fill="#17191D"/>
<path d="M318.916 507.684C318.916 506.479 317.943 505.505 316.74 505.505C315.537 505.505 314.563 506.479 314.563 507.684C314.563 508.889 315.537 509.864 316.74 509.864C317.943 509.864 318.916 508.889 318.916 507.684Z" fill="#17191D"/>
<path d="M354.73 507.684C354.73 506.479 353.757 505.505 352.553 505.505C351.35 505.505 350.377 506.479 350.377 507.684C350.377 508.889 351.35 509.864 352.553 509.864C353.757 509.864 354.73 508.889 354.73 507.684Z" fill="#17191D"/>
<path d="M390.56 507.684C390.56 506.479 389.587 505.505 388.383 505.505C387.18 505.505 386.207 506.479 386.207 507.684C386.207 508.889 387.18 509.864 388.383 509.864C389.587 509.864 390.56 508.889 390.56 507.684Z" fill="#17191D"/>
<path d="M426.373 507.684C426.373 506.479 425.4 505.505 424.197 505.505C422.994 505.505 422.021 506.479 422.021 507.684C422.021 508.889 422.994 509.864 424.197 509.864C425.4 509.864 426.373 508.889 426.373 507.684Z" fill="#17191D"/>
<path d="M462.203 507.684C462.203 506.479 461.23 505.505 460.027 505.505C458.824 505.505 457.851 506.479 457.851 507.684C457.851 508.889 458.824 509.864 460.027 509.864C461.23 509.864 462.203 508.889 462.203 507.684Z" fill="#17191D"/>
<path d="M318.916 540.768C318.916 539.563 317.943 538.588 316.74 538.588C315.537 538.588 314.563 539.563 314.563 540.768C314.563 541.973 315.537 542.948 316.74 542.948C317.943 542.948 318.916 541.973 318.916 540.768Z" fill="#17191D"/>
<path d="M354.73 540.768C354.73 539.563 353.757 538.588 352.553 538.588C351.35 538.588 350.377 539.563 350.377 540.768C350.377 541.973 351.35 542.948 352.553 542.948C353.757 542.948 354.73 541.973 354.73 540.768Z" fill="#17191D"/>
<path d="M390.56 540.768C390.56 539.563 389.587 538.588 388.383 538.588C387.18 538.588 386.207 539.563 386.207 540.768C386.207 541.973 387.18 542.948 388.383 542.948C389.587 542.948 390.56 541.973 390.56 540.768Z" fill="#17191D"/>
<path d="M426.373 540.768C426.373 539.563 425.4 538.588 424.197 538.588C422.994 538.588 422.021 539.563 422.021 540.768C422.021 541.973 422.994 542.948 424.197 542.948C425.4 542.948 426.373 541.973 426.373 540.768Z" fill="#17191D"/>
<path d="M462.203 540.768C462.203 539.563 461.23 538.588 460.027 538.588C458.824 538.588 457.851 539.563 457.851 540.768C457.851 541.973 458.824 542.948 460.027 542.948C461.23 542.948 462.203 541.973 462.203 540.768Z" fill="#17191D"/>
<path d="M318.916 573.869C318.916 572.664 317.943 571.69 316.74 571.69C315.537 571.69 314.563 572.664 314.563 573.869C314.563 575.074 315.537 576.049 316.74 576.049C317.943 576.049 318.916 575.074 318.916 573.869Z" fill="#17191D"/>
<path d="M354.73 573.869C354.73 572.664 353.757 571.69 352.553 571.69C351.35 571.69 350.377 572.664 350.377 573.869C350.377 575.074 351.35 576.049 352.553 576.049C353.757 576.049 354.73 575.074 354.73 573.869Z" fill="#17191D"/>
<path d="M390.56 573.869C390.56 572.664 389.587 571.69 388.383 571.69C387.18 571.69 386.207 572.664 386.207 573.869C386.207 575.074 387.18 576.049 388.383 576.049C389.587 576.049 390.56 575.074 390.56 573.869Z" fill="#17191D"/>
<path d="M426.373 573.869C426.373 572.664 425.4 571.69 424.197 571.69C422.994 571.69 422.021 572.664 422.021 573.869C422.021 575.074 422.994 576.049 424.197 576.049C425.4 576.049 426.373 575.074 426.373 573.869Z" fill="#17191D"/>
<path d="M462.203 573.869C462.203 572.664 461.23 571.69 460.027 571.69C458.824 571.69 457.851 572.664 457.851 573.869C457.851 575.074 458.824 576.049 460.027 576.049C461.23 576.049 462.203 575.074 462.203 573.869Z" fill="#17191D"/>
<path d="M561.769 795.018C561.769 793.813 560.796 792.838 559.592 792.838C558.389 792.838 557.416 793.813 557.416 795.018C557.416 796.223 558.389 797.197 559.592 797.197C560.796 797.197 561.769 796.223 561.769 795.018Z" fill="#17191D"/>
<path d="M597.6 795.018C597.6 793.813 596.627 792.838 595.423 792.838C594.22 792.838 593.247 793.813 593.247 795.018C593.247 796.223 594.22 797.197 595.423 797.197C596.627 797.197 597.6 796.223 597.6 795.018Z" fill="#17191D"/>
<path d="M633.43 795.018C633.43 793.813 632.457 792.838 631.254 792.838C630.05 792.838 629.077 793.813 629.077 795.018C629.077 796.223 630.05 797.197 631.254 797.197C632.439 797.197 633.43 796.223 633.43 795.018Z" fill="#17191D"/>
<path d="M669.243 795.018C669.243 793.813 668.27 792.838 667.067 792.838C665.864 792.838 664.891 793.813 664.891 795.018C664.891 796.223 665.864 797.197 667.067 797.197C668.27 797.197 669.243 796.223 669.243 795.018Z" fill="#EAEAEA"/>
<path d="M705.074 795.018C705.074 793.813 704.101 792.838 702.898 792.838C701.695 792.838 700.722 793.813 700.722 795.018C700.722 796.223 701.695 797.197 702.898 797.197C704.101 797.197 705.074 796.223 705.074 795.018Z" fill="#17191D"/>
<path d="M561.769 828.101C561.769 826.896 560.796 825.922 559.592 825.922C558.389 825.922 557.416 826.896 557.416 828.101C557.416 829.306 558.389 830.281 559.592 830.281C560.796 830.281 561.769 829.306 561.769 828.101Z" fill="#17191D"/>
<path d="M597.6 828.101C597.6 826.896 596.627 825.922 595.423 825.922C594.22 825.922 593.247 826.896 593.247 828.101C593.247 829.306 594.22 830.281 595.423 830.281C596.627 830.281 597.6 829.306 597.6 828.101Z" fill="#17191D"/>
<path d="M633.43 828.101C633.43 826.896 632.457 825.922 631.254 825.922C630.05 825.922 629.077 826.896 629.077 828.101C629.077 829.306 630.05 830.281 631.254 830.281C632.439 830.281 633.43 829.306 633.43 828.101Z" fill="#17191D"/>
<path d="M669.243 828.101C669.243 826.896 668.27 825.922 667.067 825.922C665.864 825.922 664.891 826.896 664.891 828.101C664.891 829.306 665.864 830.281 667.067 830.281C668.27 830.281 669.243 829.306 669.243 828.101Z" fill="#17191D"/>
<path d="M705.074 828.101C705.074 826.896 704.101 825.922 702.898 825.922C701.695 825.922 700.722 826.896 700.722 828.101C700.722 829.306 701.695 830.281 702.898 830.281C704.101 830.281 705.074 829.306 705.074 828.101Z" fill="#17191D"/>
<path d="M561.769 861.203C561.769 859.998 560.796 859.023 559.592 859.023C558.389 859.023 557.416 859.998 557.416 861.203C557.416 862.408 558.389 863.382 559.592 863.382C560.796 863.382 561.769 862.408 561.769 861.203Z" fill="#17191D"/>
<path d="M597.6 861.203C597.6 859.998 596.627 859.023 595.423 859.023C594.22 859.023 593.247 859.998 593.247 861.203C593.247 862.408 594.22 863.382 595.423 863.382C596.627 863.382 597.6 862.408 597.6 861.203Z" fill="#17191D"/>
<path d="M633.43 861.203C633.43 859.998 632.457 859.023 631.254 859.023C630.05 859.023 629.077 859.998 629.077 861.203C629.077 862.408 630.05 863.382 631.254 863.382C632.439 863.382 633.43 862.408 633.43 861.203Z" fill="#17191D"/>
<path d="M669.243 861.203C669.243 859.998 668.27 859.023 667.067 859.023C665.864 859.023 664.891 859.998 664.891 861.203C664.891 862.408 665.864 863.382 667.067 863.382C668.27 863.382 669.243 862.408 669.243 861.203Z" fill="#17191D"/>
<path d="M705.074 861.203C705.074 859.998 704.101 859.023 702.898 859.023C701.695 859.023 700.722 859.998 700.722 861.203C700.722 862.408 701.695 863.382 702.898 863.382C704.101 863.382 705.074 862.408 705.074 861.203Z" fill="#17191D"/>
<path d="M561.769 894.287C561.769 893.082 560.796 892.107 559.592 892.107C558.389 892.107 557.416 893.082 557.416 894.287C557.416 895.492 558.389 896.466 559.592 896.466C560.796 896.484 561.769 895.492 561.769 894.287Z" fill="#EAEAEA"/>
<path d="M597.6 894.287C597.6 893.082 596.627 892.107 595.423 892.107C594.22 892.107 593.247 893.082 593.247 894.287C593.247 895.491 594.22 896.466 595.423 896.466C596.627 896.466 597.6 895.491 597.6 894.287Z" fill="#EAEAEA"/>
<path d="M633.43 894.287C633.43 893.082 632.457 892.107 631.254 892.107C630.05 892.107 629.077 893.082 629.077 894.287C629.077 895.492 630.05 896.466 631.254 896.466C632.439 896.484 633.43 895.492 633.43 894.287Z" fill="#17191D"/>
<path d="M669.243 894.287C669.243 893.082 668.27 892.107 667.067 892.107C665.864 892.107 664.891 893.082 664.891 894.287C664.891 895.492 665.864 896.466 667.067 896.466C668.27 896.484 669.243 895.492 669.243 894.287Z" fill="#17191D"/>
<path d="M705.074 894.287C705.074 893.082 704.101 892.107 702.898 892.107C701.695 892.107 700.722 893.082 700.722 894.287C700.722 895.492 701.695 896.466 702.898 896.466C704.101 896.484 705.074 895.492 705.074 894.287Z" fill="#17191D"/>
<path d="M561.769 927.388C561.769 926.183 560.796 925.208 559.592 925.208C558.389 925.208 557.416 926.183 557.416 927.388C557.416 928.593 558.389 929.567 559.592 929.567C560.796 929.567 561.769 928.593 561.769 927.388Z" fill="#EAEAEA"/>
<path d="M597.6 927.388C597.6 926.183 596.627 925.208 595.423 925.208C594.22 925.208 593.247 926.183 593.247 927.388C593.247 928.593 594.22 929.567 595.423 929.567C596.627 929.567 597.6 928.593 597.6 927.388Z" fill="#EAEAEA"/>
<path d="M633.43 927.388C633.43 926.183 632.457 925.208 631.254 925.208C630.05 925.208 629.077 926.183 629.077 927.388C629.077 928.593 630.05 929.567 631.254 929.567C632.439 929.567 633.43 928.593 633.43 927.388Z" fill="#EAEAEA"/>
<path d="M669.243 927.388C669.243 926.183 668.27 925.208 667.067 925.208C665.864 925.208 664.891 926.183 664.891 927.388C664.891 928.593 665.864 929.567 667.067 929.567C668.27 929.567 669.243 928.593 669.243 927.388Z" fill="#17191D"/>
<path d="M705.074 927.388C705.074 926.183 704.101 925.208 702.898 925.208C701.695 925.208 700.722 926.183 700.722 927.388C700.722 928.593 701.695 929.567 702.898 929.567C704.101 929.567 705.074 928.593 705.074 927.388Z" fill="#17191D"/>
<path d="M331.355 885.621C341.477 885.621 341.477 898.593 351.598 898.593C361.719 898.593 361.719 885.621 371.84 885.621C381.961 885.621 381.961 898.593 392.082 898.593C402.203 898.593 402.203 885.621 412.324 885.621C422.445 885.621 422.445 898.593 432.566 898.593C442.687 898.593 442.687 885.621 452.808 885.621C462.929 885.621 462.929 898.593 473.068 898.593C483.189 898.593 483.189 885.621 493.328 885.621" stroke="#17191D" stroke-miterlimit="10"/>
<path d="M163 466.5C163 432.534 135.466 405 101.5 405C67.5345 405 40 432.534 40 466.5C40 500.466 67.5345 528 101.5 528C135.466 528 163 500.465 163 466.5Z" fill="#FF0B53"/>
<path d="M243.205 580L213.997 609.202L184.795 580L163 601.795L192.202 631.003L163 660.205L184.795 682L213.997 652.798L243.205 682L265 660.205L235.798 631.003L265 601.795L243.205 580Z" fill="#FF0B53"/>
</g>
<defs>
<clipPath id="clip0_16_418">
<rect width="814" height="1040" fill="white"/>
</clipPath>
</defs>
</svg>
