<svg width="791" height="778" viewBox="0 0 791 778" fill="none" xmlns="http://www.w3.org/2000/svg">
<g clip-path="url(#clip0_52_331)">
<path d="M217.668 18.5949H61.9727V276.112H217.668V18.5949Z" fill="#E0E0E0"/>
<path d="M212.478 18.5949H56.7832V276.112H212.478V18.5949Z" fill="#EBEBEB"/>
<path d="M205.864 23.8148H63.415V270.875H205.864V23.8148Z" fill="#FAFAFA"/>
<path d="M178.122 55.9078H90.5381V238.764H178.122V55.9078Z" fill="#EBEBEB"/>
<path d="M90.5393 174.068C90.3282 156.985 105.702 140.306 122.642 137.933C130.716 136.791 139.301 138.39 146.829 135.314C160.286 129.796 164.578 111.921 178.123 106.631L178.739 238.799H90.5393V174.068Z" fill="#E0E0E0"/>
<path d="M791 28.244H641.673V183.77H791V28.244Z" fill="#E0E0E0"/>
<path d="M780.884 28.2429H631.557V183.769H780.884V28.2429Z" fill="#FAFAFA"/>
<path d="M780.92 183.805H631.505V28.1912H780.92V183.805ZM631.61 183.717H780.85V28.2791H631.61V183.717Z" fill="#E0E0E0"/>
<path d="M760.814 49.1413H651.629V162.855H760.814V49.1413Z" fill="#FAFAFA"/>
<path d="M651.629 163.611C651.717 163.716 650.679 164.894 648.937 166.739C647.196 168.585 644.751 171.063 641.989 173.77C639.245 176.476 636.712 178.884 634.865 180.589C633 182.294 631.804 183.313 631.716 183.208C631.628 183.12 632.649 181.925 634.39 180.097C636.131 178.251 638.594 175.756 641.338 173.049C644.1 170.342 646.615 167.917 648.48 166.212C650.345 164.507 651.541 163.506 651.629 163.611Z" fill="#E0E0E0"/>
<path d="M760.814 163.33C760.92 163.242 762.098 164.279 763.945 166.019C765.792 167.759 768.273 170.202 770.982 172.961C773.691 175.703 776.101 178.234 777.807 180.079C779.513 181.942 780.533 183.137 780.428 183.225C780.34 183.313 779.144 182.294 777.314 180.554C775.467 178.814 772.969 176.353 770.26 173.611C767.551 170.852 765.124 168.339 763.418 166.476C761.711 164.613 760.709 163.418 760.814 163.33Z" fill="#E0E0E0"/>
<path d="M760.515 49.4401C760.427 49.3346 761.465 48.1571 763.206 46.3116C764.948 44.4662 767.393 41.9881 770.155 39.2814C772.899 36.5748 775.432 34.1669 777.279 32.4621C779.144 30.7573 780.34 29.7379 780.428 29.8433C780.516 29.9312 779.495 31.1264 777.754 32.9542C776.012 34.7996 773.55 37.2778 770.806 40.002C768.044 42.7087 765.528 45.1341 763.664 46.8389C761.781 48.5437 760.603 49.5455 760.515 49.4401Z" fill="#E0E0E0"/>
<path d="M651.33 49.7213C651.225 49.8092 650.046 48.7722 648.199 47.0322C646.352 45.2923 643.872 42.8492 641.163 40.0899C638.454 37.3481 636.044 34.8172 634.337 32.9718C632.631 31.1088 631.611 29.9136 631.716 29.8258C631.804 29.7379 633.001 30.7573 634.83 32.4972C636.677 34.2372 639.175 36.6978 641.884 39.4396C644.593 42.199 647.02 44.7123 648.727 46.5753C650.433 48.4383 651.436 49.6334 651.33 49.7213Z" fill="#E0E0E0"/>
<path d="M760.516 162.855C760.516 162.855 760.498 162.662 760.498 162.31C760.498 161.924 760.481 161.396 760.481 160.729C760.463 159.305 760.445 157.249 760.428 154.595C760.41 149.199 760.357 141.378 760.322 131.413C760.269 111.499 760.199 83.1324 760.111 49.1589L760.533 49.5807C728.747 49.5982 691.419 49.6158 651.664 49.651H651.647L652.122 49.1764C652.104 90.9184 652.069 129.954 652.051 162.89L651.629 162.469C684.26 162.556 711.42 162.627 730.471 162.679C739.987 162.732 747.463 162.767 752.617 162.785C755.151 162.802 757.121 162.82 758.475 162.838C759.126 162.855 759.619 162.855 759.988 162.855C760.322 162.838 760.498 162.855 760.516 162.855C760.516 162.855 760.357 162.873 760.041 162.873C759.689 162.873 759.196 162.89 758.563 162.89C757.226 162.908 755.291 162.926 752.776 162.943C747.657 162.961 740.198 163.013 730.717 163.049C711.614 163.101 684.348 163.172 651.612 163.259H651.19V162.838C651.172 129.901 651.154 90.8657 651.119 49.1237V48.6492H651.612H651.629C691.384 48.6667 728.712 48.6843 760.498 48.7195H760.92V49.1413C760.832 83.2203 760.762 111.693 760.709 131.676C760.656 141.589 760.621 149.392 760.604 154.753C760.586 157.372 760.568 159.41 760.551 160.816C760.533 161.467 760.533 161.976 760.533 162.363C760.533 162.697 760.516 162.855 760.516 162.855Z" fill="#E0E0E0"/>
<path d="M724.436 87.79H688.006V124.189H724.436V87.79Z" fill="#EBEBEB"/>
<path d="M565.488 757.05C562.392 754.396 555.461 745.96 560.791 736.17C562.743 732.585 566.912 730.792 570.659 729.21C574.424 727.628 578.382 726.258 581.495 723.604C587.37 718.612 588.989 710.316 592.876 703.655C597.344 696.01 605.7 690.28 614.53 690.685C624.627 691.142 633.071 699.385 636.888 708.787C640.705 718.19 640.846 728.63 640.916 738.789C640.952 744.396 640.705 750.74 636.589 754.519C632.79 758.017 627.055 758.052 621.901 757.894C603.501 757.331 585.084 756.769 566.684 756.206" fill="#F5F5F5"/>
<path d="M671.102 605.32H525.873L552.03 761.18C553.174 767.982 558.099 773.237 564.432 775.047C564.59 775.1 564.766 775.135 564.942 775.188C565.382 775.293 565.786 775.452 566.244 775.522C567.194 775.715 568.196 775.821 569.199 775.856C569.199 775.908 569.216 775.961 569.216 775.996L569.92 775.891H634.654C635.868 775.891 637.064 775.768 638.207 775.539C645.859 774.362 651.963 768.228 652.895 760.301L665.508 652.915L666.071 648.644H666L670.996 606.111L671.102 605.32ZM643.713 704.745H628.814L630.309 659.506H647.583L643.713 704.745ZM649.025 659.506H663.291L657.979 704.745H645.155L649.025 659.506ZM606.438 754.888L605.524 715.589H626.984L625.682 754.888H606.438ZM583.236 715.589H604.099L604.996 754.888H586.297L583.236 715.589ZM584.855 754.888H567.369C565.716 744.272 563.552 730.493 561.213 715.589H581.811L584.855 754.888ZM582.392 704.745L578.874 659.506H602.797L603.835 704.745H582.392ZM605.277 704.745L604.239 659.506H628.866L627.354 704.745H605.277ZM603.993 648.661L603.026 606.779H630.608L629.218 648.661H603.993ZM602.551 648.661H578.029L574.775 606.779H601.583L602.551 648.661ZM576.587 648.661H550.641C549.726 642.879 548.846 637.395 548.072 632.474C545.364 615.531 544.343 609.169 543.78 606.779H573.333L576.587 648.661ZM577.431 659.506L580.949 704.745H559.489C558.768 700.158 558.029 695.518 557.308 690.86C555.619 680.174 553.948 669.506 552.365 659.506H577.431ZM558.029 704.745H544.009L536.41 659.506H550.887C553.121 673.496 555.566 689.05 558.029 704.745ZM559.735 715.589C561.864 729.193 563.974 742.603 565.892 754.888H552.435L545.838 715.589H559.735ZM627.125 754.888L628.427 715.589H642.763L639.403 754.888H627.125ZM630.661 648.661L632.05 606.779H652.068L648.48 648.661H630.661ZM542.408 606.779C542.989 609.802 545.627 626.288 549.181 648.661H534.598L527.562 606.779H542.408ZM652.086 754.888H640.863L644.223 715.589H656.695L652.086 754.888ZM664.558 648.661H649.94L653.529 606.779H669.483L664.558 648.661Z" fill="#E0E0E0"/>
<path d="M753.76 777.543C753.76 777.789 585.013 778 376.898 778C168.712 778 0 777.789 0 777.543C0 777.297 168.712 777.086 376.898 777.086C585.013 777.086 753.76 777.297 753.76 777.543Z" fill="#263238"/>
<path d="M551.942 587.147L352.288 587.024C328.277 587.006 308.821 567.55 308.821 543.56L308.927 43.4468C308.927 19.4386 328.417 -0.0175637 352.446 1.18982e-05L552.1 0.123041C576.112 0.140616 595.567 19.5968 595.567 43.5874L595.461 543.718C595.461 567.708 575.971 587.165 551.942 587.147Z" fill="#455A64"/>
<path d="M551.89 17.8041L513.173 17.7865C507.983 17.7865 503.779 22.1804 503.779 27.5937V34.6063C503.779 40.0372 499.575 44.4311 494.386 44.4135L418.922 44.3608C413.732 44.3608 409.528 39.9669 409.528 34.536V27.5234C409.528 22.0925 405.324 17.6986 400.135 17.6986H386.52L352.64 17.681C335.806 17.6635 322.173 31.3021 322.155 48.1044L322.067 536.266C322.067 553.068 335.683 566.689 352.517 566.707L551.784 566.83C568.618 566.847 582.251 553.209 582.269 536.406L582.357 48.245C582.321 31.4427 568.706 17.8217 551.89 17.8041Z" fill="#FAFAFA"/>
<path d="M517.271 33.6396H515.055V36.7329H517.271V33.6396Z" fill="#263238"/>
<path d="M520.878 32.2512H518.661V36.7329H520.878V32.2512Z" fill="#263238"/>
<path d="M524.483 31.2142H522.267V36.7329H524.483V31.2142Z" fill="#263238"/>
<path d="M528.072 29.2281H525.855V36.7505H528.072V29.2281Z" fill="#263238"/>
<path d="M560.738 36.8911H549.638C549.198 36.8911 548.847 36.5396 548.847 36.1002V30.5815C548.847 30.1421 549.198 29.7906 549.638 29.7906H560.756C560.808 29.7906 560.861 29.8082 560.896 29.8433C560.932 29.8785 560.949 29.9312 560.949 29.9839V31.7942H562.145C562.251 31.7942 562.356 31.8821 562.356 32.0051V34.659C562.356 34.7645 562.268 34.8699 562.145 34.8699H560.949V36.6802C560.949 36.8032 560.844 36.8911 560.738 36.8911ZM560.527 30.1948H549.621C549.41 30.1948 549.234 30.3706 549.234 30.5815V36.1002C549.234 36.3111 549.41 36.4869 549.621 36.4869H560.527V34.6766C560.527 34.5711 560.615 34.4657 560.738 34.4657H561.934V32.216H560.738C560.632 32.216 560.527 32.1281 560.527 32.0051V30.1948Z" fill="#263238"/>
<path d="M550.148 35.573V31.0912H559.63V33.1124V33.5693V35.573H550.148Z" fill="#263238"/>
<path d="M538.661 36.4693C538.661 36.0299 538.292 35.6608 537.852 35.6608C537.412 35.6608 537.043 36.0299 537.043 36.4693C537.043 36.9087 537.412 37.2778 537.852 37.2778C538.292 37.2778 538.661 36.9263 538.661 36.4693Z" fill="#263238"/>
<path d="M535.09 34.5184L536.128 35.5554C536.567 35.116 537.183 34.8348 537.852 34.8348C538.52 34.8348 539.136 35.116 539.575 35.5554L540.613 34.5184C539.91 33.8154 538.925 33.376 537.852 33.376C536.779 33.376 535.793 33.7978 535.09 34.5184Z" fill="#263238"/>
<path d="M537.852 31.056C536.128 31.056 534.58 31.7591 533.454 32.8839L534.492 33.9208C535.354 33.0596 536.55 32.5324 537.852 32.5324C539.153 32.5324 540.35 33.0596 541.212 33.9208L542.249 32.8839C541.124 31.7591 539.558 31.056 537.852 31.056Z" fill="#263238"/>
<path d="M531.766 31.1967L532.804 32.2336C534.105 30.933 535.882 30.1421 537.852 30.1421C539.822 30.1421 541.616 30.9506 542.901 32.2336L543.938 31.1967C542.373 29.6324 540.227 28.6658 537.852 28.6658C535.477 28.6833 533.331 29.65 531.766 31.1967Z" fill="#263238"/>
<path d="M465.519 90.9711H452.097C451.182 90.9711 450.426 90.233 450.426 89.3015V80.1973C450.426 79.2834 451.165 78.5276 452.097 78.5276H465.519C466.433 78.5276 467.19 79.2658 467.19 80.1973V89.3015C467.19 90.233 466.433 90.9711 465.519 90.9711Z" fill="#263238"/>
<path d="M454.138 79.3537H452.379V77.2798C452.379 73.5713 455.141 70.7768 458.817 70.7768C462.493 70.7768 465.255 73.5713 465.255 77.2798V78.5979H463.496V77.2798C463.496 74.538 461.526 72.5344 458.817 72.5344C456.108 72.5344 454.138 74.5204 454.138 77.2798V79.3537Z" fill="#263238"/>
<path d="M324.143 386.452C324.107 354.974 342.472 324.146 370.195 309.172C389.615 298.679 412.096 295.885 433.609 290.964C455.123 286.042 477.428 277.87 490.726 260.277C508.704 236.497 505.274 202.699 518.238 175.861C529.971 151.607 555.794 134.805 582.743 133.908V542.54C582.743 556.267 571.608 567.392 557.87 567.392H349.016C335.278 567.392 324.143 556.267 324.143 542.54V386.452Z" fill="#EBEBEB"/>
<path d="M368.137 173.611C368.137 158.461 376.088 149.427 387.117 149.427C398.129 149.427 406.168 158.461 406.168 173.611C406.168 188.761 398.146 197.812 387.117 197.812C376.088 197.795 368.137 188.761 368.137 173.611ZM401.119 173.611C401.119 160.904 395.402 153.909 387.117 153.909C378.814 153.909 373.097 160.904 373.097 173.611C373.097 186.318 378.814 193.313 387.117 193.313C395.42 193.313 401.119 186.318 401.119 173.611Z" fill="#263238"/>
<path d="M447.506 173.207C447.506 189.377 438.658 197.813 425.746 197.813C421.454 197.813 417.444 197.057 414.453 195.229L416.423 191.292C418.868 192.927 422.14 193.542 425.676 193.542C435.949 193.542 442.545 186.951 442.545 174.033C442.545 172.944 442.475 171.59 442.334 170.167C439.96 175.404 434.383 178.322 427.787 178.322C418.323 178.322 411.727 172.75 411.727 164.05C411.727 155.14 418.728 149.445 427.98 149.445C440.646 149.41 447.506 158.18 447.506 173.207ZM440.769 163.752C440.769 158.514 436.424 153.558 428.191 153.558C421.313 153.558 416.564 157.565 416.564 163.892C416.564 170.149 421.19 174.156 428.526 174.156C435.808 174.156 440.769 169.675 440.769 163.752Z" fill="#263238"/>
<path d="M454.647 165.052C454.647 162.943 456.283 161.379 458.254 161.379C460.224 161.379 461.93 162.943 461.93 165.052C461.93 167.161 460.224 168.796 458.254 168.796C456.283 168.796 454.647 167.161 454.647 165.052ZM454.647 193.999C454.647 191.89 456.283 190.326 458.254 190.326C460.224 190.326 461.93 191.89 461.93 193.999C461.93 196.108 460.224 197.743 458.254 197.743C456.283 197.743 454.647 196.108 454.647 193.999Z" fill="#263238"/>
<path d="M501.509 193.05V197.391H468.105V193.929L487.894 174.561C493.259 169.253 494.28 166.072 494.28 162.802C494.28 157.301 490.41 153.892 483.127 153.892C477.551 153.892 473.259 155.597 470.145 159.2L466.68 156.212C470.356 151.87 476.267 149.41 483.549 149.41C493.207 149.41 499.328 154.296 499.328 162.258C499.328 166.81 497.903 170.887 491.5 177.144L475.317 193.05H501.509Z" fill="#263238"/>
<path d="M507.35 173.611C507.35 158.461 515.301 149.427 526.33 149.427C537.342 149.427 545.381 158.461 545.381 173.611C545.381 188.762 537.359 197.813 526.33 197.813C515.301 197.795 507.35 188.762 507.35 173.611ZM540.332 173.611C540.332 160.904 534.615 153.909 526.33 153.909C518.027 153.909 512.31 160.904 512.31 173.611C512.31 186.319 518.027 193.314 526.33 193.314C534.633 193.314 540.332 186.319 540.332 173.611Z" fill="#263238"/>
<path d="M404.58 113.202C408.57 94.658 396.759 76.3932 378.199 72.4063C359.639 68.4195 341.359 80.2204 337.369 98.7643C333.378 117.308 345.189 135.573 363.749 139.56C382.309 143.547 400.59 131.746 404.58 113.202Z" fill="#E0E0E0"/>
<path d="M184.544 379.193C182.064 377.418 179.003 376.697 176.241 375.396C173.48 374.096 170.806 371.811 170.542 368.788C170.173 364.306 175.133 360.914 175.432 356.415C175.837 350.088 167.27 346.625 166.004 340.404C164.966 335.236 169.346 330.368 169.17 325.095C168.976 319.84 164.42 315.903 162.345 311.07C157.507 299.857 166.443 285.392 159.671 275.216C157.859 272.474 155.115 270.505 152.793 268.186C150.471 265.866 148.466 262.825 148.729 259.556L136.029 253.791C131.772 247.288 122.132 247.042 114.867 249.819C107.602 252.596 101.235 257.587 93.6883 259.433C90.0294 260.329 90.5571 254.916 86.8631 255.672C82.0081 256.656 76.0272 262.333 74.6551 267.043C73.1775 272.087 72.1397 277.676 70.3454 282.633C68.3577 288.099 62.4824 291.93 61.9371 297.712C61.3038 304.479 68.2873 309.98 68.3049 316.764C68.3225 324.076 60.2484 330.596 62.8166 337.433C64.2942 341.335 68.7975 343.427 70.363 347.311C72.5267 352.654 68.217 358.506 68.6215 364.271C69.0085 369.948 73.7932 374.219 78.314 377.681C95.6408 390.916 114.779 401.936 135.396 409.019C144.314 412.077 153.708 414.414 163.101 413.571C172.494 412.709 181.941 408.228 186.866 400.196C190.894 393.552 190.842 383.71 184.544 379.193Z" fill="#263238"/>
<path d="M148.237 256.392C145.933 247.218 138.404 239.555 129.274 237.059C120.145 234.563 109.766 237.358 103.117 244.089C100.408 246.831 98.2618 250.188 95.0603 252.35C91.4366 254.775 90.9089 254.072 86.8631 255.654C82.7996 257.254 75.3763 268.537 75.5171 272.878L73.4941 291.965C73.6525 296.429 79.4046 298.943 83.644 297.502C87.8833 296.043 90.6802 292.088 92.9318 288.222C95.1659 284.355 97.2767 280.154 100.936 277.588C107.004 273.318 115.237 274.794 122.502 276.27C129.767 277.764 138.193 278.819 143.857 274.038C148.729 269.925 149.785 262.596 148.237 256.392Z" fill="#263238"/>
<path d="M152.23 283.634C151.421 271.209 143.153 255.988 130.77 257.324L92.1053 267.184C88.3409 267.588 85.5088 270.804 85.5967 274.583L89.9416 367.769C89.8537 367.786 89.7657 367.804 89.6778 367.821C89.6778 367.821 105.404 401.127 130.963 393.095C136.029 391.496 131.438 378.947 132.441 373.235L132.705 373.27C132.722 372.584 132.722 371.969 132.74 371.319C133.584 364.746 132.898 358.524 132.898 358.524C132.968 351.002 132.968 347.908 132.968 347.979C132.968 347.979 148.853 345.307 152.089 324.603C153.69 314.321 153.127 297.431 152.23 283.634Z" fill="#FFBE9D"/>
<path d="M149.028 299.593C149.081 300.999 147.937 302.194 146.477 302.282C145.017 302.37 143.786 301.298 143.733 299.892C143.68 298.486 144.824 297.291 146.284 297.203C147.744 297.115 148.975 298.187 149.028 299.593Z" fill="#263238"/>
<path d="M148.571 292.422C148.236 292.774 146.231 291.28 143.364 291.297C140.514 291.262 138.403 292.739 138.104 292.405C137.946 292.247 138.28 291.631 139.195 290.964C140.092 290.296 141.622 289.645 143.399 289.663C145.176 289.663 146.688 290.313 147.55 290.981C148.447 291.649 148.747 292.264 148.571 292.422Z" fill="#263238"/>
<path d="M121.992 300.472C122.045 301.878 120.901 303.073 119.441 303.161C117.981 303.249 116.75 302.177 116.697 300.771C116.644 299.365 117.788 298.169 119.248 298.082C120.708 298.011 121.939 299.083 121.992 300.472Z" fill="#263238"/>
<path d="M120.461 293.02C120.127 293.371 118.104 291.877 115.254 291.895C112.405 291.86 110.294 293.336 109.995 292.985C109.837 292.826 110.171 292.211 111.085 291.543C111.983 290.876 113.513 290.225 115.29 290.243C117.066 290.243 118.579 290.893 119.441 291.561C120.321 292.229 120.637 292.862 120.461 293.02Z" fill="#263238"/>
<path d="M130.893 314.181C130.875 314.023 132.652 313.706 135.537 313.337C136.275 313.267 136.961 313.109 137.085 312.617C137.26 312.089 136.944 311.298 136.592 310.455C135.906 308.697 135.185 306.834 134.428 304.901C131.42 296.992 129.222 290.489 129.538 290.383C129.855 290.26 132.564 296.57 135.572 304.479C136.293 306.43 136.997 308.293 137.647 310.068C137.929 310.894 138.404 311.843 138.034 312.933C137.841 313.478 137.296 313.882 136.838 314.005C136.363 314.146 135.959 314.163 135.607 314.181C132.704 314.339 130.91 314.357 130.893 314.181Z" fill="#263238"/>
<path d="M132.951 347.996C132.951 347.996 119.019 348.928 105.175 340.667C105.175 340.667 111.947 354.868 132.669 352.9L132.951 347.996Z" fill="#EB996E"/>
<path d="M129.697 321.07C128.659 319.717 126.865 318.979 125.07 319.172C123.821 319.313 122.572 319.91 121.834 320.912C121.077 321.932 120.919 323.355 121.623 324.322C122.397 325.412 124.015 325.658 125.369 325.253C126.741 324.867 127.902 323.97 129.028 323.074C129.345 322.828 129.644 322.564 129.837 322.23C130.031 321.896 130.066 321.439 129.837 321.158" fill="#EB996E"/>
<path d="M122.484 316.184C122.941 316.149 122.959 319.26 125.615 321.457C128.271 323.654 131.578 323.303 131.613 323.742C131.666 323.935 130.875 324.34 129.485 324.392C128.113 324.445 126.107 324.006 124.489 322.67C122.871 321.317 122.167 319.524 122.062 318.258C121.921 316.94 122.273 316.167 122.484 316.184Z" fill="#263238"/>
<path d="M121.745 288.011C121.463 288.784 118.614 288.433 115.254 288.837C111.894 289.188 109.185 290.173 108.745 289.47C108.552 289.136 109.009 288.397 110.1 287.642C111.19 286.886 112.914 286.165 114.92 285.937C116.925 285.708 118.772 286.025 120.003 286.517C121.235 287.027 121.868 287.642 121.745 288.011Z" fill="#263238"/>
<path d="M147.515 284.162C147.005 284.812 145.035 284.144 142.678 284.109C140.303 284.004 138.298 284.548 137.84 283.881C137.629 283.547 137.946 282.896 138.825 282.281C139.687 281.666 141.13 281.156 142.766 281.209C144.402 281.262 145.809 281.842 146.636 282.51C147.462 283.178 147.726 283.845 147.515 284.162Z" fill="#263238"/>
<path d="M130.083 252.034L128.324 249.784C116.362 251.155 104.612 254.143 93.4592 258.677C89.0087 260.487 84.4879 262.649 81.4447 266.375C77.2406 271.49 76.5721 278.555 76.0972 285.146C74.2853 310.279 72.7725 336.15 80.6883 360.071C82.5881 357.012 86.3174 355.642 89.8531 354.956C93.3888 354.271 97.1004 354.042 100.32 352.408C103.838 350.615 106.406 347.17 107.391 343.339C108.376 339.507 107.831 335.359 106.107 331.809C104.189 327.819 100.759 323.988 101.586 319.647C102.466 315.095 107.69 312.494 108.921 308.029C111.032 300.314 100.196 293.389 102.395 285.691C103.204 282.844 105.685 280.77 108.341 279.469C110.979 278.151 113.882 277.413 116.573 276.165C125.509 272.017 131.209 261.806 130.083 252.034Z" fill="#263238"/>
<path d="M234.694 409.897L210.454 447.579C210.454 447.579 213.145 452.043 218.986 451.797C224.808 451.551 232.847 436.999 233.797 434.046C234.747 431.093 233.445 428.264 234.325 426.313C235.204 424.362 234.852 418.966 234.852 418.966C234.712 419.283 240.077 412.094 234.694 409.897Z" fill="#FFBE9D"/>
<path d="M203.752 447.562L216.382 397.665C216.769 396.171 217.737 394.888 219.073 394.132L237.42 383.675C238.529 383.042 239.954 383.341 240.71 384.378C241.15 384.975 241.29 385.748 241.115 386.469L227.746 438.985L203.752 447.562Z" fill="#263238"/>
<path d="M197.385 486.228L226.708 432.113L215.679 417.824L174.411 449.108L185.212 478.846L197.385 486.228Z" fill="#FF0B53"/>
<path d="M227.06 443.836C226.972 443.801 227.447 443.08 227.623 441.604C227.817 440.145 227.711 437.93 227.008 435.347L226.972 435.224L227.043 435.101C227.5 434.31 227.729 433.29 227.377 432.324C227.06 431.357 226.269 430.443 225.336 429.775L225.02 429.547L225.231 429.213C226.269 427.666 227.377 425.997 228.555 424.257C228.837 423.817 229.206 423.36 229.329 422.974C229.47 422.569 229.417 422.112 229.224 421.673C228.837 420.777 228.028 419.968 227.166 419.353L226.761 419.054L227.095 418.685C227.993 417.666 228.995 416.646 229.998 415.609C231.739 413.746 233.428 411.919 234.835 410.038C235.504 409.089 236.19 408.14 236.63 407.173C236.876 406.699 237.017 406.189 237.069 405.749C237.105 405.293 236.893 405.029 236.63 404.976L236.524 404.959C236.102 404.836 235.433 404.994 234.871 405.222C234.29 405.433 233.727 405.714 233.182 405.978C232.109 406.54 231.106 407.156 230.191 407.736C228.344 408.931 226.779 410.056 225.477 410.987C224.281 411.866 223.296 412.586 222.487 413.184C221.783 413.694 221.414 413.957 221.378 413.922C221.343 413.887 221.678 413.553 222.328 412.991C222.979 412.411 223.947 411.602 225.196 410.618C226.445 409.634 227.993 408.439 229.822 407.191C230.737 406.576 231.739 405.925 232.83 405.328C233.375 405.029 233.956 404.748 234.589 404.502C235.222 404.291 235.891 403.992 236.788 404.203L236.682 404.185C237.527 404.238 238.002 405.187 237.914 405.802C237.861 406.435 237.667 407.015 237.421 407.56C236.946 408.649 236.243 409.616 235.557 410.6C234.114 412.551 232.425 414.397 230.666 416.277C229.646 417.314 228.643 418.334 227.764 419.335L227.676 418.65C228.661 419.388 229.541 420.214 230.051 421.374C230.297 421.954 230.385 422.657 230.156 423.29C229.91 423.94 229.576 424.292 229.277 424.766C228.081 426.506 226.937 428.158 225.864 429.705L225.759 429.16C226.849 429.951 227.676 430.953 228.045 432.148C228.432 433.343 228.116 434.591 227.57 435.452L227.606 435.206C228.256 437.913 228.256 440.162 227.957 441.674C227.817 442.43 227.588 442.992 227.412 443.344C227.219 443.695 227.095 443.853 227.06 443.836Z" fill="#EB996E"/>
<path d="M240.711 384.395C240.746 384.448 240.201 384.835 239.198 385.467C238.195 386.1 236.735 386.996 234.906 388.068C233.006 389.176 230.842 390.441 228.485 391.83C227.271 392.533 225.987 393.271 224.668 394.027C223.349 394.765 221.924 395.485 220.833 396.54C219.725 397.559 219.285 399.053 218.898 400.494C218.511 401.971 218.142 403.377 217.79 404.748C217.086 407.402 216.436 409.809 215.873 411.936C215.31 413.975 214.835 415.627 214.501 416.769C214.149 417.912 213.938 418.527 213.867 418.509C213.814 418.492 213.902 417.841 214.149 416.681C214.395 415.522 214.764 413.852 215.239 411.778C215.749 409.651 216.33 407.208 216.981 404.537C217.315 403.166 217.667 401.742 218.036 400.266C218.406 398.807 218.898 397.102 220.2 395.872C221.466 394.677 222.909 393.974 224.246 393.236C225.565 392.497 226.849 391.777 228.081 391.091C230.473 389.773 232.672 388.561 234.589 387.506C236.454 386.487 237.967 385.696 239.022 385.151C240.077 384.606 240.675 384.325 240.711 384.395Z" fill="#455A64"/>
<path d="M228.555 401.443C228.098 402.533 228.045 403.535 228.432 403.711C228.819 403.869 229.505 403.131 229.963 402.041C230.42 400.951 230.473 399.95 230.086 399.774C229.699 399.616 229.013 400.354 228.555 401.443Z" fill="white"/>
<path d="M137.225 371.196C149.96 375.783 160.339 385.239 166.108 397.489L205.476 481.166L239.391 494.91L209.522 503.505L182.925 484.013L137.225 371.196Z" fill="#FF0B53"/>
<path d="M209.523 503.487L195.239 514.49L123.962 441.235L83.2217 367.698L87.936 354.025L119.441 367.136L130.716 383.798L133.232 362.654L135.255 365.519L138.544 374.43C138.544 374.43 169.486 400.143 176.153 420.531C181.729 437.544 179.988 472.712 183.365 482.256L209.523 503.487Z" fill="#FAFAFA"/>
<path d="M75.5874 366.767C75.1124 368.19 45.1203 380.23 43.6955 390.722C42.2706 401.215 65.2441 482.344 65.2441 482.344L101.674 514.507H195.239L165.564 458.986C159.161 447.017 151.087 436.032 141.552 426.366C132.775 417.472 122.132 406.47 116.662 399.897C110.734 392.779 85.5965 359.561 85.5965 359.561L75.5874 366.767Z" fill="#FF0B53"/>
<path d="M94.3739 370.089C94.4267 369.983 96.4496 370.897 99.6687 372.461C102.888 374.026 107.303 376.258 112.176 378.771C114.111 379.773 115.958 380.739 117.682 381.653L117.048 382.075C116.802 378.085 117.189 374.658 117.646 372.286C118.104 369.913 118.596 368.559 118.667 368.577C118.772 368.612 118.473 370.001 118.174 372.373C117.875 374.746 117.611 378.121 117.91 382.022L117.963 382.796L117.277 382.444C115.553 381.565 113.688 380.599 111.754 379.615C106.898 377.101 102.518 374.781 99.3697 373.059C96.221 371.319 94.3036 370.194 94.3739 370.089Z" fill="#263238"/>
<path d="M166.478 444.082C166.425 444.117 165.898 443.256 164.983 441.709C163.998 440.004 162.714 437.772 161.166 435.083C157.964 429.494 153.496 421.761 148.465 413.307C143.417 404.853 138.738 397.26 135.343 391.777C133.707 389.141 132.352 386.944 131.332 385.274C130.4 383.727 129.907 382.866 129.96 382.831C130.013 382.796 130.611 383.604 131.631 385.081C132.669 386.557 134.129 388.736 135.888 391.425C139.441 396.821 144.208 404.361 149.257 412.832C154.305 421.286 158.668 429.072 161.746 434.749C163.277 437.596 164.49 439.899 165.317 441.516C166.126 443.133 166.549 444.047 166.478 444.082Z" fill="#263238"/>
<g opacity="0.3">
<g opacity="0.3">
<path opacity="0.3" d="M152.072 500.622C157.507 501.536 163.084 502.468 168.501 501.431C173.919 500.394 179.232 496.984 180.92 491.747C181.448 490.112 181.677 488.232 182.943 487.072C185.037 485.138 188.361 486.333 191.211 486.07C194.377 485.789 197.086 483.521 198.74 480.797C200.393 478.073 201.15 474.927 201.889 471.834C202.258 470.305 202.627 468.74 202.451 467.176C202.276 465.612 201.449 464.03 200.024 463.397C197.878 462.431 195.468 463.837 193.551 465.208C178.124 476.315 164.069 489.163 150.049 501.993" fill="black"/>
</g>
</g>
<path d="M187.024 438.704C187.024 438.704 192.389 426.401 195.256 424.696C198.124 422.991 212.337 414.695 212.337 414.695L210.507 421.462L224.404 411.813C226.11 410.671 236.049 401.654 237.808 405.169C239.075 407.7 230.965 414.379 229.875 415.855C227.166 419.564 228.063 419.23 228.063 419.23C228.063 419.23 231.001 421.005 229.523 423.624C228.045 426.243 225.548 429.459 225.548 429.459C225.548 429.459 229.417 430.83 227.166 435.856C227.166 435.856 228.186 438.563 227.553 442.307C226.92 446.05 220.13 453.186 220.13 453.186L186.285 469.285L172.635 446.138L187.024 438.704Z" fill="#FFBE9D"/>
<path d="M108.2 415.574L129.907 461.868L178.035 440.971C178.035 440.971 198.018 452.606 195.239 465.331L151.878 500.921C143.663 507.653 133.056 510.746 122.501 509.445C111.173 508.057 101.041 501.765 94.7609 492.239L63.3791 444.521L45.8236 415.855C40.2122 406.681 40.2122 394.87 46.5624 386.188C48.3039 383.815 50.362 381.829 52.7544 380.37C60.6174 375.625 83.8899 373.569 108.2 415.574Z" fill="#FF0B53"/>
<path d="M214.958 418.246C215.081 418.439 211.915 420.618 207.887 423.114C203.858 425.592 200.499 427.455 200.376 427.244C200.252 427.051 203.419 424.872 207.447 422.376C211.458 419.898 214.835 418.052 214.958 418.246Z" fill="#EB996E"/>
<path d="M228.503 417.824C228.661 418 225.829 421.04 222.188 424.643C218.529 428.229 215.433 431.006 215.274 430.847C215.098 430.689 217.931 427.631 221.589 424.028C225.248 420.425 228.344 417.648 228.503 417.824Z" fill="#EB996E"/>
<path d="M226.69 428.246C226.866 428.404 225.547 430.25 223.735 432.376C221.923 434.503 220.305 436.12 220.111 435.962C219.936 435.804 221.255 433.958 223.067 431.832C224.896 429.705 226.514 428.106 226.69 428.246Z" fill="#EB996E"/>
<path d="M227.324 435.276C227.5 435.434 226.761 436.577 225.811 437.948C224.861 439.301 224.035 440.408 223.824 440.285C223.612 440.18 224.123 438.862 225.108 437.456C226.075 436.05 227.148 435.136 227.324 435.276Z" fill="#EB996E"/>
<path d="M144.49 505.526C144.49 505.526 144.56 505.438 144.718 505.315C144.894 505.157 145.123 504.981 145.404 504.735C146.055 504.208 146.97 503.47 148.131 502.538C150.576 500.605 154.094 497.828 158.527 494.313C167.551 487.247 180.357 477.212 195.626 465.243L195.467 465.542C195.467 463.186 195.045 460.761 194.095 458.459C193.093 456.174 191.738 453.994 190.102 451.938C186.76 447.913 182.521 444.31 177.789 441.375L178.193 441.393C170.225 444.855 161.852 448.493 153.267 452.219C145.316 455.664 137.541 459.039 130.065 462.29L129.678 462.466L129.485 462.097C123.099 449.548 117.206 437.719 111.226 427.455C108.253 422.306 105.315 417.543 102.536 413.096C99.7565 408.667 97.2234 404.537 94.6376 400.986C89.589 393.781 83.9073 389.369 79.6503 387.102C78.6125 386.487 77.645 386.012 76.8006 385.608C75.9739 385.186 75.2526 384.87 74.6722 384.624C74.1268 384.378 73.6871 384.184 73.3529 384.044C73.0538 383.903 72.9131 383.833 72.9131 383.815C72.9131 383.815 75.4813 384.553 79.791 386.821C81.9371 387.963 84.4878 389.545 87.1439 391.83C89.8177 394.079 92.4915 397.085 95.1125 400.635C97.7511 404.185 100.319 408.316 103.116 412.727C105.913 417.138 108.904 421.919 111.894 427.051C117.945 437.315 123.873 449.126 130.276 461.675L129.696 461.464C137.172 458.213 144.947 454.838 152.898 451.376C161.482 447.65 169.855 444.029 177.824 440.567L178.035 440.479L178.228 440.602C183.083 443.625 187.34 447.263 190.753 451.393C192.424 453.502 193.831 455.752 194.852 458.125C195.837 460.533 196.277 463.081 196.241 465.559V465.735L196.083 465.858C180.726 477.721 167.85 487.652 158.773 494.664C154.27 498.109 150.717 500.833 148.236 502.714C147.04 503.61 146.108 504.313 145.439 504.823C145.14 505.034 144.912 505.21 144.718 505.35C144.577 505.473 144.49 505.526 144.49 505.526Z" fill="#263238"/>
<path d="M126.987 476.421C126.741 476.315 128.06 473.011 128.817 468.723C129.608 464.452 129.52 460.884 129.802 460.866C130.03 460.831 130.541 464.469 129.731 468.881C128.94 473.31 127.181 476.526 126.987 476.421Z" fill="#263238"/>
<path d="M391.78 612.403L416.987 643.951C416.987 643.951 457.552 628.942 462.776 634.32L403.302 685.342L362.017 637.817L391.78 612.403Z" fill="#FF0B53"/>
<g opacity="0.6">
<g opacity="0.6">
<g opacity="0.6">
<g opacity="0.6">
<g opacity="0.6">
<path opacity="0.6" d="M396.389 657.15C395.509 658.451 395.826 660.419 397.092 661.368C398.359 662.3 400.364 662.001 401.279 660.718C402.176 659.435 401.877 657.045 400.505 656.272C399.15 655.481 396.793 655.973 396.23 657.432" fill="white"/>
</g>
</g>
</g>
</g>
</g>
<g opacity="0.6">
<g opacity="0.6">
<g opacity="0.6">
<g opacity="0.6">
<path opacity="0.6" d="M403.319 685.359L399.344 680.403L457.85 633.335C457.85 633.335 461.492 632.211 462.793 634.337L403.319 685.359Z" fill="white"/>
</g>
</g>
</g>
</g>
<path d="M417.692 642.826C417.938 643.125 416.601 644.496 415.968 646.658C415.282 648.802 415.634 650.683 415.264 650.806C414.948 650.981 413.892 648.872 414.701 646.271C415.475 643.67 417.533 642.51 417.692 642.826Z" fill="#263238"/>
<path d="M426.152 640.049C426.469 640.278 425.624 641.842 425.695 643.916C425.695 645.99 426.592 647.536 426.293 647.765C426.064 648.046 424.393 646.517 424.358 643.934C424.305 641.367 425.906 639.786 426.152 640.049Z" fill="#263238"/>
<path d="M436.109 644.478C435.898 644.76 434.244 643.67 433.629 641.438C432.995 639.206 433.822 637.413 434.156 637.554C434.526 637.659 434.385 639.259 434.913 641.086C435.405 642.897 436.373 644.197 436.109 644.478Z" fill="#263238"/>
<path d="M411.148 636.271C411.253 636.64 409.582 637.378 408.034 638.907C406.451 640.401 405.659 642.035 405.29 641.93C404.938 641.86 405.272 639.715 407.119 637.958C408.949 636.165 411.095 635.919 411.148 636.271Z" fill="#263238"/>
<g opacity="0.3">
<g opacity="0.3">
<g opacity="0.3">
<g opacity="0.3">
<path opacity="0.3" d="M396.776 618.66L401.279 624.284L371.815 649.083L367.558 644.215L396.776 618.66Z" fill="black"/>
</g>
</g>
</g>
</g>
<path d="M405.958 629.996C406.064 630.119 405.079 631.279 402.968 632.545C401.913 633.177 400.593 633.792 399.028 634.267C398.254 634.495 397.409 634.689 396.53 634.829C396.108 634.882 395.633 634.988 395.035 634.9C394.454 634.865 393.61 634.267 393.575 633.476C393.487 632.755 393.856 632.105 394.278 631.718C394.7 631.332 395.14 631.103 395.527 630.91C396.336 630.506 397.146 630.189 397.919 629.961C399.503 629.504 400.98 629.363 402.212 629.398C404.692 629.486 406.099 630.172 406.046 630.312C405.994 630.523 404.551 630.189 402.229 630.348C401.086 630.418 399.714 630.646 398.289 631.138C397.568 631.385 396.846 631.701 396.125 632.07C395.351 632.439 394.806 632.896 394.894 633.318C394.929 633.476 394.964 633.529 395.246 633.599C395.527 633.652 395.932 633.599 396.354 633.546C397.181 633.441 397.955 633.283 398.693 633.089C400.171 632.72 401.473 632.211 402.528 631.718C404.639 630.717 405.818 629.838 405.958 629.996Z" fill="#263238"/>
<path d="M405.923 630.734C405.852 630.875 404.392 630.33 402.669 628.537C401.824 627.641 400.945 626.428 400.276 624.934C399.942 624.179 399.678 623.353 399.485 622.474C399.326 621.595 399.08 620.435 400.1 619.345C400.663 618.818 401.56 618.853 402.053 619.117C402.598 619.345 402.932 619.662 403.302 619.943C404.005 620.541 404.586 621.243 405.026 621.947C405.923 623.37 406.31 624.864 406.398 626.112C406.556 628.643 405.641 630.031 405.536 629.961C405.307 629.891 405.852 628.467 405.465 626.235C405.272 625.128 404.832 623.827 404.005 622.632C403.583 622.034 403.073 621.454 402.475 620.962C401.842 620.417 401.156 620.101 400.98 620.365C400.681 620.611 400.593 621.525 400.769 622.228C400.927 623.019 401.138 623.774 401.42 624.477C401.965 625.866 402.686 627.043 403.39 627.94C404.815 629.75 406.046 630.558 405.923 630.734Z" fill="#263238"/>
<path d="M364.391 709.649L362.825 750.916C362.825 750.916 404.287 766.365 404.744 774.028L324.53 773.87L324.337 709.455L364.391 709.649Z" fill="#FF0B53"/>
<g opacity="0.6">
<g opacity="0.6">
<g opacity="0.6">
<g opacity="0.6">
<g opacity="0.6">
<path opacity="0.6" d="M338.04 747.401C336.492 747.823 335.419 749.563 335.771 751.127C336.123 752.691 337.9 753.798 339.448 753.412C341.013 753.025 342.368 750.969 341.84 749.457C341.312 747.946 339.166 746.751 337.741 747.506" fill="white"/>
</g>
</g>
</g>
</g>
</g>
<g opacity="0.6">
<g opacity="0.6">
<g opacity="0.6">
<g opacity="0.6">
<path opacity="0.6" d="M324.548 773.887L324.777 767.402L401.595 769.986C401.595 769.986 405.166 771.55 404.761 774.063L324.548 773.887Z" fill="white"/>
</g>
</g>
</g>
</g>
<path d="M364.127 750.529C364.11 750.916 362.157 751.092 360.222 752.357C358.252 753.57 357.267 755.257 356.898 755.099C356.528 755.029 357.126 752.691 359.484 751.215C361.841 749.703 364.215 750.16 364.127 750.529Z" fill="#263238"/>
<path d="M372.536 754.027C372.624 754.413 370.935 755.064 369.598 756.716C368.209 758.333 367.874 760.126 367.487 760.108C367.118 760.161 366.854 757.876 368.543 755.855C370.214 753.798 372.518 753.64 372.536 754.027Z" fill="#263238"/>
<path d="M377.285 764.08C376.933 764.168 376.388 762.2 377.391 760.073C378.393 757.929 380.24 757.085 380.399 757.401C380.627 757.718 379.431 758.878 378.622 760.635C377.795 762.393 377.69 764.045 377.285 764.08Z" fill="#263238"/>
<path d="M363.441 741.074C363.282 741.425 361.488 740.88 359.272 741.038C357.055 741.144 355.331 741.882 355.12 741.548C354.892 741.267 356.58 739.826 359.184 739.685C361.805 739.527 363.634 740.775 363.441 741.074Z" fill="#263238"/>
<g opacity="0.3">
<g opacity="0.3">
<g opacity="0.3">
<g opacity="0.3">
<path opacity="0.3" d="M364.074 717.839L363.81 725.185L324.39 724.746L324.354 718.12L364.074 717.839Z" fill="black"/>
</g>
</g>
</g>
</g>
<path d="M363.599 732.743C363.599 732.901 362.051 733.147 359.589 732.708C358.357 732.497 356.915 732.093 355.384 731.407C354.628 731.073 353.854 730.669 353.08 730.177C352.711 729.931 352.271 729.702 351.866 729.228C351.427 728.824 351.18 727.787 351.69 727.154C352.095 726.539 352.834 726.275 353.414 726.258C354.012 726.24 354.487 726.363 354.927 726.468C355.824 726.679 356.651 726.978 357.425 727.33C358.955 728.033 360.204 728.911 361.119 729.773C362.984 731.495 363.617 732.954 363.476 733.042C363.3 733.165 362.403 731.952 360.503 730.511C359.553 729.808 358.357 729.07 356.932 728.49C356.211 728.208 355.437 727.962 354.628 727.769C353.784 727.541 353.063 727.541 352.834 727.91C352.746 728.05 352.746 728.103 352.922 728.367C353.098 728.595 353.449 728.824 353.819 729.052C354.523 729.509 355.244 729.913 355.947 730.265C357.337 730.968 358.674 731.442 359.835 731.759C362.104 732.427 363.617 732.532 363.599 732.743Z" fill="#263238"/>
<path d="M363.089 733.305C362.948 733.358 362.174 731.969 362.034 729.421C361.963 728.156 362.104 726.644 362.597 725.027C362.843 724.219 363.177 723.393 363.617 722.584C364.092 721.793 364.672 720.739 366.185 720.563C366.977 720.528 367.645 721.16 367.856 721.688C368.12 722.233 368.173 722.69 368.261 723.164C368.401 724.096 368.384 725.01 368.261 725.871C367.997 727.576 367.311 728.999 366.537 730.019C364.971 732.092 363.335 732.55 363.3 732.426C363.177 732.233 364.531 731.477 365.745 729.491C366.343 728.507 366.871 727.207 367.029 725.73C367.117 724.992 367.1 724.201 366.959 723.41C366.836 722.567 366.519 721.863 366.203 721.951C365.798 721.951 365.13 722.584 364.795 723.27C364.391 723.99 364.057 724.728 363.793 725.449C363.283 726.89 363.071 728.279 363.001 729.456C362.896 731.776 363.3 733.253 363.089 733.305Z" fill="#263238"/>
<path d="M323.722 514.507L403.091 619.89L365.975 651.755L327.75 601.823L323.722 514.507Z" fill="#263238"/>
<path d="M155.678 519.534C155.678 519.534 283.368 480.674 295.066 481.149C306.764 481.641 328.963 523.84 328.963 523.84L293.114 522.539C283.914 545.089 266.921 568.288 247.783 591.681L174.482 588.272L155.678 519.534Z" fill="#263238"/>
<path d="M260.043 488.829C260.114 489.075 246.991 493.188 230.737 498.004C214.466 502.837 201.238 506.545 201.167 506.317C201.097 506.071 214.22 501.958 230.491 497.142C246.745 492.309 259.973 488.583 260.043 488.829Z" fill="#263238"/>
<path d="M289.719 521.871H325.569C343.459 521.871 359.396 533.155 365.341 550.01C368.138 557.954 369.37 566.355 368.965 574.756L366.168 720.475H317.899L317.037 673.9L310.933 585.354L269.156 587.112L245.479 585.635L289.719 521.871Z" fill="#263238"/>
<path d="M290.792 521.151C290.845 521.168 290.616 522.258 290.123 524.226C289.684 526.212 288.786 529.007 287.59 532.452C286.271 535.844 284.653 539.869 282.26 544.052C279.921 548.252 277.001 552.699 273.535 557.022C266.534 565.67 259.216 572.559 254.045 577.621C251.512 580.046 249.418 582.068 247.853 583.561C246.375 584.95 245.549 585.706 245.496 585.671C245.443 585.618 246.199 584.792 247.589 583.315C248.979 581.839 251.037 579.748 253.57 577.164C258.636 571.979 265.866 565.037 272.814 556.46C279.745 547.866 284.371 538.937 286.975 532.223C288.241 528.849 289.226 526.089 289.771 524.139C290.37 522.188 290.721 521.133 290.792 521.151Z" fill="#455A64"/>
<path d="M334.645 522.856C334.627 522.996 332.147 522.768 328.136 522.539C324.126 522.311 318.567 522.153 312.446 522.276C306.306 522.399 300.765 522.75 296.755 523.031C292.744 523.312 290.246 523.506 290.246 523.365C290.246 523.295 290.844 523.172 291.97 522.996C293.078 522.82 294.697 522.609 296.702 522.381C300.713 521.942 306.271 521.467 312.446 521.362C318.602 521.239 324.196 521.502 328.207 521.889C330.212 522.082 331.83 522.293 332.956 522.469C334.029 522.662 334.645 522.785 334.645 522.856Z" fill="#455A64"/>
<path d="M317.706 693.866C317.671 693.866 317.635 693.444 317.583 692.653C317.53 691.757 317.459 690.614 317.389 689.173C317.248 686.045 317.055 681.686 316.809 676.343C316.334 665.516 315.683 650.56 314.645 634.056C313.607 617.553 312.376 602.631 311.479 591.822C311.039 586.497 310.687 582.156 310.441 579.027C310.335 577.586 310.265 576.426 310.194 575.547C310.142 574.756 310.142 574.334 310.177 574.334C310.212 574.334 310.282 574.739 310.388 575.529C310.493 576.408 310.634 577.568 310.81 578.992C311.144 582.12 311.584 586.444 312.147 591.769C313.202 602.561 314.522 617.482 315.577 634.003C316.615 650.524 317.16 665.481 317.477 676.325C317.6 681.668 317.688 686.027 317.758 689.156C317.776 690.597 317.776 691.757 317.776 692.653C317.758 693.444 317.741 693.866 317.706 693.866Z" fill="#263238"/>
<path d="M369.053 569.15C369.299 569.15 369.141 602.543 368.666 643.723C368.208 684.92 367.628 718.296 367.364 718.296C367.118 718.296 367.276 684.902 367.751 643.723C368.208 602.526 368.789 569.15 369.053 569.15Z" fill="#455A64"/>
<path d="M329.667 563.701C329.755 563.982 324.724 565.248 319.377 568.552C313.994 571.821 310.581 575.723 310.388 575.529C310.3 575.459 311.039 574.387 312.499 572.876C313.959 571.364 316.175 569.466 318.902 567.779C321.646 566.109 324.355 564.984 326.36 564.387C328.348 563.754 329.632 563.596 329.667 563.701Z" fill="#263238"/>
<g opacity="0.3">
<g opacity="0.3">
<path opacity="0.3" d="M245.479 585.688C255.206 587.481 265.901 584.511 274.239 579.308C282.577 574.106 288.752 565.722 291.126 556.39C292.199 552.189 292.516 547.848 293.571 543.647C294.627 539.447 296.562 535.246 300.098 532.628C304.179 529.587 314.24 527.654 317.231 523.594C317.231 522.979 305.322 524.367 301.311 524.578C296.949 524.824 289.649 525.914 289.807 525.404C289.807 525.404 286.887 535.615 285.603 537.83C276.913 552.734 257.827 574.651 245.479 585.688Z" fill="black"/>
</g>
</g>
<path d="M46.4746 688.839L60.0546 777.543H73.5115L66.8798 689.173L46.4746 688.839Z" fill="#263238"/>
<path d="M285.339 689.173V777.543H299.552L304.847 688.839L285.339 689.173Z" fill="#263238"/>
<path d="M44.0649 414.695C44.0649 414.695 25.0494 415.451 19.2269 423.413C8.97149 437.456 14.7236 449.636 14.1607 453.784C13.5802 457.931 46.4748 688.822 46.4748 688.822H60.0196L304.847 691.071L316.597 662.528L310.951 585.354L245.496 585.653C245.496 585.653 218.688 508.777 195.257 503.628C179.39 500.148 142.115 501.378 119.687 502.538C108.5 503.118 97.8396 497.687 91.7532 488.302L44.0649 414.695Z" fill="#455A64"/>
<path d="M261.064 679.77C261.064 679.77 259.709 679.946 257.106 680.069C254.502 680.139 250.668 680.262 245.707 680.315C235.786 680.456 221.361 680.491 203.419 680.473C167.516 680.438 117.489 680.157 60.8993 679.665H60.5299L60.4596 679.313C59.4393 674.48 58.4015 669.506 57.3284 664.444C56.3082 659.383 55.2879 654.233 54.2501 649.048C41.9542 586.444 34.7596 529.077 30.8896 487.476C28.9371 466.666 27.7761 449.811 27.0373 438.141C26.7206 432.324 26.4744 427.807 26.2985 424.714C26.2281 423.202 26.1753 422.042 26.1402 421.216C26.105 420.425 26.1226 420.021 26.1226 420.021C26.1226 420.021 26.1753 420.425 26.2457 421.216C26.2985 422.025 26.3864 423.184 26.5096 424.714C26.7206 427.807 27.0197 432.324 27.4243 438.141C28.2686 449.794 29.5352 466.649 31.5581 487.441C35.6039 529.007 42.9041 586.321 55.1824 648.89C56.2202 654.075 57.2581 659.224 58.2607 664.269C59.3162 669.313 60.354 674.287 61.3743 679.12L60.9345 678.768C117.489 679.208 167.516 679.594 203.437 679.876C221.361 679.928 235.768 679.964 245.725 679.981C250.668 679.946 254.502 679.928 257.123 679.893C258.425 679.893 259.41 679.805 260.079 679.788C260.712 679.77 261.064 679.77 261.064 679.77Z" fill="#263238"/>
<path d="M258.478 690.667C258.443 690.667 258.478 690.28 258.583 689.56C258.707 688.751 258.865 687.714 259.041 686.449C259.269 685.096 259.533 683.443 259.744 681.51C259.973 679.577 260.307 677.397 260.483 674.954C260.712 672.529 260.958 669.858 261.064 666.993C261.257 664.128 261.257 661.052 261.31 657.836C261.275 651.386 260.923 644.285 260.079 636.886C259.182 629.486 257.88 622.509 256.455 616.217C254.977 609.925 253.377 604.336 251.864 599.696C251.16 597.358 250.369 595.284 249.753 593.457C249.137 591.611 248.539 590.047 248.047 588.781C247.607 587.569 247.237 586.584 246.956 585.829C246.71 585.143 246.604 584.792 246.639 584.774C246.675 584.757 246.833 585.108 247.132 585.758C247.449 586.514 247.871 587.463 248.381 588.658C248.926 589.924 249.577 591.47 250.245 593.298C250.914 595.126 251.758 597.183 252.497 599.52C254.098 604.16 255.769 609.749 257.299 616.059C258.777 622.368 260.114 629.381 261.011 636.815C261.855 644.25 262.172 651.386 262.172 657.871C262.102 661.105 262.066 664.198 261.838 667.063C261.697 669.945 261.416 672.617 261.152 675.06C260.941 677.503 260.554 679.682 260.272 681.616C260.008 683.549 259.692 685.183 259.428 686.537C259.164 687.802 258.953 688.822 258.795 689.63C258.601 690.316 258.513 690.685 258.478 690.667Z" fill="#263238"/>
<path d="M79.07 525.263C79.0524 525.246 79.3866 524.947 80.0551 524.437C80.7939 523.875 81.779 523.119 83.0103 522.188C83.6612 521.695 84.3824 521.151 85.1564 520.571C85.9831 520.026 86.8978 519.499 87.8829 518.901C89.8707 517.741 92.0343 516.282 94.6905 515.105C95.9922 514.472 97.3467 513.804 98.7716 513.119C100.179 512.416 101.744 511.906 103.328 511.256C104.911 510.658 106.529 509.937 108.253 509.393C109.977 508.848 111.753 508.285 113.583 507.705C120.918 505.579 129.133 503.698 137.893 502.661C146.636 501.554 155.044 501.027 162.678 501.167C166.496 501.097 170.119 501.413 173.514 501.536C176.892 501.853 180.058 502.064 182.908 502.468C188.642 503.206 193.216 504.155 196.347 504.928C197.825 505.333 199.021 505.667 199.936 505.913C200.745 506.141 201.167 506.282 201.167 506.317C201.167 506.352 200.71 506.264 199.883 506.088C198.968 505.877 197.772 505.614 196.277 505.262C193.128 504.594 188.554 503.751 182.837 503.101C179.988 502.731 176.839 502.556 173.462 502.274C170.084 502.187 166.478 501.905 162.678 501.993C155.079 501.923 146.706 502.468 138.016 503.558C129.309 504.594 121.129 506.44 113.829 508.514C112.017 509.076 110.241 509.621 108.534 510.148C106.81 510.676 105.21 511.379 103.627 511.959C102.061 512.591 100.495 513.083 99.0882 513.769C97.6633 514.437 96.3089 515.069 95.0071 515.685C92.351 516.809 90.1697 518.233 88.182 519.34C87.1969 519.92 86.2646 520.43 85.4202 520.94C84.6287 521.502 83.9074 522.012 83.239 522.486C81.9725 523.365 80.9698 524.068 80.1958 524.595C79.4746 525.052 79.0876 525.281 79.07 525.263Z" fill="#263238"/>
<path d="M224.58 537.76C224.598 537.76 224.545 537.953 224.404 538.34C224.281 538.709 224.105 539.289 223.806 540.009C223.173 541.415 222.135 543.507 220.2 545.774C218.283 548.024 215.451 550.414 211.739 552.418C209.857 553.384 207.781 554.263 205.512 555.001C203.225 555.687 200.745 556.232 198.106 556.513C192.811 557.075 186.971 556.653 180.85 555.546C174.728 554.456 168.325 552.681 161.57 551.064C154.816 549.482 147.603 548.059 140.075 548.217C136.31 548.287 132.511 548.815 128.817 549.939C125.123 551.047 121.604 552.892 118.385 555.23C111.93 559.922 107.11 566.267 103.099 572.612C99.0708 579.009 95.8868 585.583 92.4918 591.681C89.132 597.78 85.5787 603.457 81.4801 608.167C77.4342 612.895 72.7903 616.621 67.9352 618.853C63.0978 621.068 58.2956 622.07 54.0738 622.122C49.852 622.175 46.2284 621.331 43.5194 620.154C42.1297 619.609 41.0391 618.871 40.054 618.291C39.1569 617.605 38.3829 617.008 37.8024 616.481C37.2923 615.936 36.8877 615.514 36.5887 615.198C36.3248 614.899 36.1841 614.758 36.2017 614.741C36.2193 614.723 36.3776 614.864 36.659 615.127C36.9757 615.426 37.3978 615.83 37.9256 616.34C38.506 616.832 39.2976 617.394 40.1948 618.062C41.1798 618.607 42.2705 619.328 43.6425 619.837C46.3339 620.945 49.9048 621.736 54.0562 621.63C58.2076 621.542 62.9219 620.488 67.6538 618.291C72.3857 616.076 76.9065 612.385 80.8996 607.693C84.9103 603.018 88.4108 597.393 91.7354 591.295C95.0953 585.214 98.2792 578.605 102.307 572.155C106.336 565.74 111.191 559.307 117.805 554.509C121.094 552.136 124.7 550.238 128.518 549.096C132.317 547.936 136.205 547.409 140.039 547.338C147.709 547.18 154.974 548.639 161.764 550.256C168.536 551.908 174.922 553.701 180.991 554.808C187.059 555.95 192.829 556.407 198.036 555.88C200.639 555.616 203.084 555.107 205.336 554.456C207.588 553.753 209.646 552.91 211.51 551.978C215.187 550.045 218.001 547.743 219.936 545.563C223.789 541.064 224.404 537.654 224.58 537.76Z" fill="white"/>
<path d="M314.046 650.19C314.046 650.19 313.783 650.261 313.272 650.384C312.727 650.489 311.971 650.647 311.003 650.841C310.001 650.999 308.84 651.526 307.415 651.948C306.694 652.141 306.008 652.563 305.216 652.897C304.442 653.266 303.598 653.6 302.788 654.127C299.393 655.973 295.647 658.89 291.583 662.599C287.502 666.272 283.14 670.807 277.792 675.253C275.101 677.45 272.163 679.665 268.75 681.387C267.097 682.354 265.232 682.986 263.385 683.707C262.418 683.971 261.45 684.217 260.483 684.48C259.515 684.779 258.478 684.814 257.457 685.008C253.376 685.535 249.049 685.306 244.774 684.357C240.482 683.443 236.261 681.738 232.162 679.665C223.947 675.464 216.207 669.559 208.801 662.845C201.431 656.166 193.867 649.066 185.072 643.283C180.674 640.401 176.048 637.958 171.193 636.376C166.355 634.759 161.307 634.038 156.381 634.32C151.456 634.601 146.706 635.884 142.309 637.694C137.893 639.504 133.812 641.789 129.907 644.18C122.132 648.978 115.061 654.11 107.866 658.029C100.654 661.896 93.4418 664.585 86.687 666.202C73.1246 669.541 61.6731 669.102 54.0035 668.17C46.2988 667.151 42.2002 665.78 42.2002 665.78C42.2002 665.78 42.4641 665.815 42.9742 665.921C43.5195 666.044 44.2759 666.202 45.2434 666.413C47.2311 666.834 50.204 667.379 54.0387 667.819C61.6907 668.645 73.0894 668.961 86.5287 665.569C93.2307 663.917 100.355 661.228 107.497 657.361C114.621 653.442 121.657 648.31 129.468 643.459C133.373 641.051 137.506 638.731 141.975 636.886C146.443 635.04 151.28 633.722 156.329 633.423C161.377 633.124 166.549 633.863 171.474 635.497C176.417 637.114 181.114 639.592 185.564 642.51C194.465 648.363 202.029 655.481 209.4 662.177C216.752 668.856 224.422 674.743 232.531 678.909C236.577 680.965 240.729 682.652 244.933 683.566C249.137 684.498 253.341 684.744 257.334 684.252C258.319 684.076 259.339 684.041 260.289 683.76C261.239 683.514 262.189 683.25 263.139 683.004C264.951 682.301 266.763 681.703 268.399 680.754C271.758 679.067 274.679 676.905 277.352 674.743C282.682 670.367 287.08 665.868 291.214 662.212C295.312 658.539 299.13 655.639 302.595 653.811C303.422 653.284 304.284 652.967 305.075 652.598C305.867 652.264 306.57 651.86 307.309 651.667C308.752 651.262 309.93 650.753 310.951 650.63C311.936 650.472 312.692 650.349 313.255 650.261C313.783 650.208 314.046 650.19 314.046 650.19Z" fill="white"/>
<path d="M69.2367 458.213C69.2895 458.23 69.1664 459.021 68.7618 460.427C68.3748 461.833 67.636 463.837 66.4046 466.174C64.0299 470.814 59.2628 476.755 52.0682 480.516C44.8561 484.277 37.2569 484.787 32.0852 484.084C29.4818 483.75 27.4061 483.205 26.034 482.731C24.6444 482.256 23.9232 481.904 23.9407 481.852C23.9935 481.658 27.0191 482.941 32.1732 483.434C37.2745 483.961 44.6626 483.346 51.6637 479.69C58.6647 476.034 63.379 470.322 65.8593 465.858C68.3924 461.359 69.0608 458.142 69.2367 458.213Z" fill="white"/>
<path d="M619.719 341.616H287.167C280.43 341.616 274.959 336.15 274.959 329.418V239.466C274.959 232.735 280.43 227.269 287.167 227.269H619.719C626.456 227.269 631.927 232.735 631.927 239.466V329.418C631.944 336.15 626.474 341.616 619.719 341.616Z" fill="white"/>
<path d="M619.72 341.616C619.72 341.564 620.529 341.634 622.077 341.335C623.59 341.019 625.912 340.263 628.128 338.119C629.219 337.064 630.257 335.658 630.943 333.918C631.664 332.161 631.893 330.122 631.805 327.872C631.787 323.39 631.787 318.206 631.769 312.388C631.752 300.736 631.717 286.482 631.699 269.926C631.681 261.648 631.681 252.807 631.664 243.422C631.593 241.084 631.893 238.659 631.242 236.391C630.644 234.107 629.307 232.015 627.477 230.433C625.648 228.852 623.291 227.85 620.81 227.639C618.33 227.533 615.709 227.621 613.106 227.586C529.673 227.621 414.454 227.674 287.203 227.727C285.286 227.727 283.386 228.219 281.697 229.098C280.009 229.994 278.566 231.312 277.476 232.859C276.403 234.441 275.734 236.268 275.505 238.149C275.347 240.012 275.453 242.051 275.417 243.984C275.417 251.84 275.417 259.626 275.417 267.377C275.417 282.861 275.417 298.117 275.417 313.109C275.417 316.852 275.417 320.596 275.417 324.304C275.435 326.15 275.4 328.03 275.435 329.841C275.505 331.616 275.98 333.373 276.807 334.938C278.478 338.066 281.609 340.368 285.075 340.966C286.781 341.265 288.628 341.124 290.44 341.159C292.252 341.159 294.064 341.159 295.875 341.159C310.317 341.159 324.443 341.177 338.234 341.177C393.381 341.212 443.039 341.247 484.747 341.282C526.436 341.335 560.193 341.388 583.518 341.423C595.163 341.458 604.222 341.493 610.379 341.511C613.44 341.528 615.779 341.546 617.363 341.564C618.928 341.581 619.72 341.616 619.72 341.616C619.72 341.616 618.911 341.651 617.345 341.669C615.762 341.687 613.422 341.687 610.362 341.722C604.205 341.739 595.163 341.774 583.501 341.81C560.158 341.845 526.419 341.898 484.729 341.95C443.021 341.985 393.363 342.003 338.216 342.056C324.425 342.056 310.3 342.073 295.858 342.073C294.046 342.073 292.252 342.073 290.422 342.073C288.61 342.038 286.799 342.196 284.899 341.862C281.152 341.23 277.81 338.751 275.998 335.395C275.101 333.707 274.591 331.827 274.52 329.911C274.468 328.03 274.503 326.203 274.503 324.34C274.503 320.631 274.503 316.887 274.503 313.144C274.503 298.152 274.503 282.896 274.503 267.412C274.503 259.661 274.503 251.875 274.503 244.019C274.538 242.033 274.415 240.135 274.591 238.079C274.837 236.057 275.558 234.071 276.702 232.384C277.88 230.715 279.428 229.291 281.258 228.324C283.087 227.375 285.145 226.865 287.203 226.848C414.454 226.901 529.673 226.953 613.106 226.988C615.727 227.024 618.26 226.936 620.863 227.059C623.467 227.287 625.947 228.359 627.864 230.011C629.782 231.664 631.189 233.878 631.805 236.268C632.156 237.446 632.227 238.711 632.244 239.907C632.244 241.102 632.244 242.279 632.244 243.457C632.227 252.842 632.227 261.7 632.209 269.961C632.174 286.517 632.156 300.771 632.139 312.423C632.121 318.241 632.104 323.426 632.104 327.907C632.174 330.139 631.928 332.284 631.189 334.041C630.485 335.816 629.395 337.222 628.286 338.295C626.017 340.439 623.643 341.177 622.13 341.458C621.356 341.581 620.758 341.651 620.353 341.634C619.931 341.616 619.72 341.616 619.72 341.616Z" fill="#263238"/>
<path d="M606.246 250.733C606.123 250.733 606.017 250.68 605.929 250.592C605.753 250.416 605.771 250.135 605.947 249.977L614.742 241.558C614.918 241.4 615.199 241.4 615.358 241.576C615.534 241.752 615.516 242.033 615.34 242.191L606.545 250.61C606.457 250.697 606.351 250.733 606.246 250.733Z" fill="#263238"/>
<path d="M614.988 250.768C614.882 250.768 614.759 250.733 614.689 250.645L605.982 242.156C605.806 241.98 605.806 241.717 605.982 241.541C606.157 241.365 606.421 241.365 606.597 241.541L615.305 250.03C615.48 250.206 615.48 250.469 615.305 250.645C615.217 250.733 615.111 250.768 614.988 250.768Z" fill="#263238"/>
<path d="M351.884 306.659L348.296 301.579C346.132 298.521 344.971 294.865 344.971 291.122V279.715C344.971 270.4 338.111 262.667 329.157 261.314V255.865C329.157 254.477 328.031 253.352 326.641 253.352C325.252 253.352 324.126 254.477 324.126 255.865V261.226C314.856 262.315 307.661 270.172 307.679 279.733V291.561C307.679 295.621 306.324 299.576 303.809 302.774L300.73 306.694L351.884 306.659Z" fill="#FF0B53"/>
<path d="M323.615 314.954C326.377 316.114 329.772 315.517 331.989 313.513C332.956 312.634 333.677 311.509 334.099 310.279L319.2 310.174C319.921 312.283 321.557 314.093 323.615 314.954Z" fill="#FF0B53"/>
<path d="M552.717 265.901C552.717 266.147 512.734 266.358 463.409 266.358C414.068 266.358 374.102 266.147 374.102 265.901C374.102 265.655 414.085 265.444 463.409 265.444C512.734 265.444 552.717 265.637 552.717 265.901Z" fill="#263238"/>
<path d="M594.812 287.501C594.812 287.747 545.4 287.958 484.465 287.958C423.514 287.958 374.102 287.747 374.102 287.501C374.102 287.255 423.496 287.044 484.465 287.044C545.4 287.044 594.812 287.238 594.812 287.501Z" fill="#E0E0E0"/>
<path d="M594.812 300.419C594.812 300.665 545.4 300.876 484.465 300.876C423.514 300.876 374.102 300.665 374.102 300.419C374.102 300.173 423.496 299.962 484.465 299.962C545.4 299.962 594.812 300.173 594.812 300.419Z" fill="#E0E0E0"/>
<path d="M562.619 438.035H341.768C335.031 438.035 329.561 432.569 329.561 425.838V371.67C329.561 364.938 335.031 359.472 341.768 359.472H562.619C569.357 359.472 574.827 364.938 574.827 371.67V425.838C574.827 432.569 569.357 438.035 562.619 438.035Z" fill="#FAFAFA"/>
<path d="M562.62 438.036C562.62 438.001 563.165 438.018 564.221 437.878C565.259 437.737 566.859 437.386 568.654 436.331C570.413 435.294 572.453 433.501 573.667 430.724C574.265 429.336 574.652 427.737 574.67 425.997C574.67 424.239 574.67 422.376 574.652 420.39C574.635 412.463 574.599 402.762 574.582 391.513C574.564 385.889 574.564 379.861 574.547 373.481C574.547 371.881 574.582 370.282 574.16 368.735C573.773 367.189 573.051 365.695 572.031 364.394C570.043 361.775 566.824 360 563.359 359.825C506.629 359.842 428.298 359.877 341.787 359.912C339.183 359.948 336.58 360.774 334.557 362.391C332.516 363.972 331.004 366.24 330.388 368.735C330.054 370.001 329.983 371.231 330.001 372.584V376.574C330.001 379.228 330.001 381.864 330.001 384.501C330.001 395.028 330.001 405.398 330.001 415.592C330.001 418.14 330.001 420.671 330.001 423.202C330.019 424.45 329.966 425.751 330.054 426.946C330.177 428.158 330.476 429.336 330.951 430.443C331.918 432.64 333.537 434.573 335.577 435.804C337.6 437.087 339.992 437.649 342.402 437.579C352.218 437.579 361.823 437.596 371.198 437.596C408.702 437.632 442.458 437.667 470.832 437.702C499.171 437.755 522.109 437.807 537.993 437.843C545.909 437.878 552.048 437.913 556.252 437.93C558.328 437.948 559.911 437.966 561.002 437.983C562.075 438.001 562.62 438.036 562.62 438.036C562.62 438.036 562.075 438.071 561.002 438.089C559.911 438.106 558.328 438.106 556.252 438.141C552.048 438.159 545.909 438.194 537.993 438.229C522.109 438.264 499.171 438.317 470.832 438.37C442.476 438.405 408.702 438.423 371.198 438.475C361.823 438.475 352.218 438.493 342.402 438.493C339.922 438.581 337.284 437.966 335.12 436.595C332.921 435.259 331.18 433.203 330.142 430.83C329.649 429.635 329.315 428.369 329.174 427.069C329.069 425.751 329.121 424.52 329.104 423.255C329.104 420.724 329.104 418.193 329.104 415.645C329.104 405.451 329.104 395.081 329.104 384.553C329.104 381.917 329.104 379.281 329.104 376.627V372.637C329.069 371.337 329.157 369.878 329.508 368.56C330.177 365.871 331.795 363.428 333.994 361.723C336.175 359.965 338.99 359.069 341.787 359.051C428.315 359.122 506.664 359.174 563.412 359.227C567.053 359.42 570.43 361.319 572.524 364.078C573.579 365.449 574.336 367.013 574.74 368.648C575.18 370.282 575.145 371.969 575.127 373.534C575.11 379.913 575.109 385.924 575.092 391.566C575.057 402.814 575.039 412.516 575.022 420.443C575.004 422.429 575.004 424.292 574.986 426.049C574.951 427.824 574.547 429.477 573.913 430.883C572.647 433.73 570.553 435.505 568.759 436.542C566.93 437.596 565.311 437.913 564.256 438.018C563.165 438.071 562.62 438.036 562.62 438.036Z" fill="#263238"/>
<path d="M557.167 375.73C557.044 375.73 556.938 375.677 556.85 375.589C556.674 375.414 556.692 375.132 556.868 374.974L562.919 369.192C563.095 369.034 563.376 369.034 563.534 369.209C563.71 369.385 563.693 369.666 563.517 369.824L557.466 375.607C557.378 375.677 557.272 375.73 557.167 375.73Z" fill="#263238"/>
<path d="M563.182 375.748C563.077 375.748 562.954 375.713 562.883 375.625L556.902 369.79C556.727 369.614 556.727 369.351 556.902 369.175C557.078 368.999 557.342 368.999 557.518 369.175L563.499 375.01C563.675 375.186 563.675 375.449 563.499 375.625C563.411 375.713 563.306 375.748 563.182 375.748Z" fill="#263238"/>
<path d="M382.422 414.01L379.959 410.513C378.464 408.403 377.672 405.89 377.672 403.324V395.485C377.672 389.088 372.958 383.78 366.801 382.831V379.087C366.801 378.138 366.027 377.365 365.077 377.365C364.127 377.365 363.353 378.138 363.353 379.087V382.778C356.985 383.516 352.042 388.93 352.042 395.485V403.605C352.042 406.4 351.11 409.106 349.386 411.303L347.275 414.01H382.422Z" fill="#455A64"/>
<path d="M362.984 419.705C364.883 420.495 367.205 420.091 368.736 418.72C369.404 418.123 369.897 417.349 370.196 416.488L359.958 416.418C360.451 417.877 361.576 419.125 362.984 419.705Z" fill="#455A64"/>
<path d="M520.403 386.012C520.403 386.258 492.926 386.469 459.047 386.469C425.149 386.469 397.673 386.258 397.673 386.012C397.673 385.766 425.149 385.555 459.047 385.555C492.926 385.555 520.403 385.749 520.403 386.012Z" fill="#263238"/>
<path d="M549.322 400.846C549.322 401.092 515.372 401.303 473.506 401.303C431.623 401.303 397.673 401.092 397.673 400.846C397.673 400.6 431.623 400.389 473.506 400.389C515.372 400.389 549.322 400.6 549.322 400.846Z" fill="#E0E0E0"/>
<path d="M549.322 409.739C549.322 409.985 515.372 410.196 473.506 410.196C431.623 410.196 397.673 409.985 397.673 409.739C397.673 409.493 431.623 409.282 473.506 409.282C515.372 409.282 549.322 409.476 549.322 409.739Z" fill="#E0E0E0"/>
<path d="M561.688 528.233H342.684C335.946 528.233 330.476 522.767 330.476 516.035V462.465C330.476 455.734 335.946 450.268 342.684 450.268H561.688C568.425 450.268 573.895 455.734 573.895 462.465V516.035C573.895 522.767 568.425 528.233 561.688 528.233Z" fill="#FAFAFA"/>
<path d="M561.688 528.234C561.688 528.198 562.234 528.216 563.289 528.075C564.327 527.935 565.91 527.583 567.687 526.546C569.446 525.527 571.469 523.769 572.682 521.01C573.298 519.639 573.703 518.057 573.738 516.335C573.738 514.595 573.738 512.732 573.738 510.781C573.72 502.907 573.685 493.293 573.667 482.133C573.65 476.544 573.65 470.586 573.632 464.241C573.632 462.642 573.668 461.077 573.245 459.531C572.858 458.002 572.137 456.508 571.152 455.225C569.182 452.624 566.016 450.831 562.585 450.62C506.295 450.638 428.58 450.673 342.737 450.708C337.53 450.637 332.605 454.416 331.374 459.425C331.022 460.673 330.951 461.903 330.969 463.239V467.194C330.969 469.83 330.969 472.449 330.969 475.05C330.969 485.49 330.969 495.789 330.969 505.913C330.969 508.444 330.969 510.957 330.969 513.47C330.986 514.718 330.934 516.001 331.022 517.179C331.162 518.374 331.444 519.551 331.901 520.659C332.851 522.855 334.452 524.754 336.475 526.002C338.48 527.285 340.837 527.882 343.23 527.812C352.975 527.812 362.509 527.829 371.797 527.829C409.001 527.865 442.494 527.9 470.639 527.935C498.766 527.988 521.529 528.04 537.272 528.075C545.118 528.111 551.222 528.146 555.391 528.163C557.449 528.181 559.014 528.198 560.105 528.216C561.143 528.198 561.688 528.234 561.688 528.234C561.688 528.234 561.143 528.269 560.087 528.286C558.997 528.304 557.431 528.304 555.373 528.339C551.204 528.357 545.1 528.392 537.255 528.427C521.494 528.462 498.731 528.515 470.621 528.568C442.476 528.603 408.984 528.62 371.779 528.673C362.474 528.673 352.94 528.691 343.212 528.691C340.732 528.761 338.128 528.128 336 526.757C333.836 525.422 332.112 523.383 331.074 521.01C330.582 519.815 330.265 518.567 330.125 517.266C330.037 515.948 330.072 514.736 330.054 513.47C330.054 510.957 330.054 508.444 330.054 505.913C330.054 495.807 330.054 485.507 330.054 475.05C330.054 472.431 330.054 469.812 330.054 467.194V463.239C330.037 461.939 330.107 460.497 330.494 459.197C331.813 453.801 337.126 449.724 342.737 449.794C428.597 449.864 506.33 449.934 562.638 449.97C566.262 450.198 569.586 452.096 571.645 454.838C572.682 456.191 573.439 457.756 573.843 459.373C574.283 460.989 574.248 462.659 574.23 464.223C574.213 470.551 574.213 476.526 574.195 482.115C574.16 493.276 574.142 502.89 574.125 510.763C574.107 512.732 574.107 514.577 574.09 516.335C574.037 518.093 573.615 519.727 572.981 521.116C571.697 523.928 569.622 525.685 567.827 526.705C565.998 527.724 564.397 528.058 563.342 528.163C562.234 528.269 561.688 528.234 561.688 528.234Z" fill="#263238"/>
<path d="M556.376 466.401C556.253 466.401 556.147 466.348 556.059 466.26C555.883 466.085 555.901 465.803 556.077 465.645L562.075 459.898C562.251 459.74 562.532 459.74 562.691 459.916C562.867 460.091 562.849 460.373 562.673 460.531L556.675 466.278C556.587 466.348 556.481 466.401 556.376 466.401Z" fill="#263238"/>
<path d="M562.338 466.42C562.232 466.42 562.109 466.385 562.039 466.297L556.093 460.515C555.917 460.339 555.917 460.076 556.093 459.9C556.269 459.724 556.533 459.724 556.709 459.9L562.654 465.682C562.83 465.858 562.83 466.122 562.654 466.297C562.566 466.385 562.461 466.42 562.338 466.42Z" fill="#263238"/>
<path d="M382.932 504.384L380.487 500.921C379.009 498.83 378.218 496.334 378.218 493.786V486C378.218 479.637 373.539 474.382 367.435 473.451V469.742C367.435 468.793 366.661 468.037 365.728 468.037C364.779 468.037 364.022 468.811 364.022 469.742V473.398C357.707 474.136 352.799 479.497 352.799 486.017V494.084C352.799 496.861 351.867 499.55 350.161 501.73L348.05 504.401L382.932 504.384Z" fill="#E0E0E0"/>
<path d="M363.653 510.043C365.535 510.834 367.857 510.43 369.352 509.059C370.003 508.461 370.495 507.688 370.794 506.844L360.627 506.774C361.137 508.233 362.245 509.463 363.653 510.043Z" fill="#E0E0E0"/>
<path d="M519.876 476.597C519.876 476.843 492.61 477.054 458.977 477.054C425.344 477.054 398.078 476.843 398.078 476.597C398.078 476.351 425.344 476.14 458.977 476.14C492.61 476.14 519.876 476.351 519.876 476.597Z" fill="#263238"/>
<path d="M548.584 491.325C548.584 491.571 514.898 491.782 473.331 491.782C431.764 491.782 398.078 491.571 398.078 491.325C398.078 491.079 431.764 490.868 473.331 490.868C514.898 490.868 548.584 491.061 548.584 491.325Z" fill="#E0E0E0"/>
<path d="M548.584 500.148C548.584 500.394 514.898 500.605 473.331 500.605C431.764 500.605 398.078 500.394 398.078 500.148C398.078 499.902 431.764 499.691 473.331 499.691C514.898 499.691 548.584 499.884 548.584 500.148Z" fill="#E0E0E0"/>
<path d="M741.834 428.352C723.627 437.772 709.66 454.012 699.616 471.869C689.572 489.743 683.098 509.34 676.695 528.814L671.084 629.205C692.281 593.193 709.273 550.853 713.882 509.322C709.185 508.901 704.489 508.479 699.774 508.074C709.221 506.633 717.172 499.796 722.22 491.676C727.269 483.557 729.872 474.206 732.405 464.997C726.67 465.84 720.936 466.702 715.201 467.545C728.676 458.546 738.439 444.17 741.834 428.352Z" fill="#455A64"/>
<path d="M741.834 428.352C723.627 437.772 709.66 454.012 699.616 471.869C689.572 489.743 683.098 509.34 676.695 528.814L671.084 629.205C692.281 593.193 709.273 550.853 713.882 509.322C709.185 508.901 704.489 508.479 699.774 508.074C709.221 506.633 717.172 499.796 722.22 491.676C727.269 483.557 729.872 474.206 732.405 464.997C726.67 465.84 720.936 466.702 715.201 467.545C728.676 458.546 738.439 444.17 741.834 428.352Z" fill="#FF0B53"/>
<g opacity="0.3">
<g opacity="0.3">
<path opacity="0.3" d="M741.834 428.352C723.627 437.772 709.66 454.012 699.616 471.869C689.572 489.743 683.098 509.34 676.695 528.814L671.084 629.205C692.281 593.193 709.273 550.853 713.882 509.322C709.185 508.901 704.489 508.479 699.774 508.074C709.221 506.633 717.172 499.796 722.22 491.676C727.269 483.557 729.872 474.206 732.405 464.997C726.67 465.84 720.936 466.702 715.201 467.545C728.676 458.546 738.439 444.17 741.834 428.352Z" fill="black"/>
</g>
</g>
<path d="M667.953 652.721C667.953 652.721 621.953 597.727 622.499 545.212H641.074C641.074 545.212 620.898 531.96 622.499 524.525C624.099 517.108 624.627 488.987 624.627 488.987L641.62 493.223C641.62 493.223 628.884 486.861 627.283 476.79C625.683 466.719 630.995 420.038 630.995 420.038C630.995 420.038 651.699 441.779 658.067 464.065C664.435 486.333 681.163 512.328 676.256 580.222C671.33 648.099 667.953 652.721 667.953 652.721Z" fill="#FF0B53"/>
<path d="M691.26 657.906C691.26 657.906 741.095 624.741 752.159 582.419L737.225 578.359C737.225 578.359 756.346 572.102 756.697 565.793C757.032 559.465 762.766 536.758 762.766 536.758L748.184 536.459C748.184 536.459 759.811 534.121 763.312 526.371C766.795 518.62 772.758 479.936 772.758 479.936C772.758 479.936 751.35 492.889 741.358 509.41C731.367 525.931 712.228 543.173 701.304 598.817C690.381 654.461 691.26 657.906 691.26 657.906Z" fill="#FF0B53"/>
<path d="M643.555 468.002C643.573 468.002 643.625 468.196 643.731 468.565C643.836 469.004 643.977 469.549 644.135 470.252C644.487 471.816 644.98 473.995 645.613 476.772C646.246 479.602 647.003 483.082 647.812 487.124C648.639 491.167 649.589 495.772 650.521 500.869C652.491 511.062 654.584 523.26 656.713 536.828C658.788 550.396 660.864 565.353 662.711 581.101C664.523 596.849 665.913 611.893 666.986 625.585C667.988 639.276 668.745 651.632 669.167 662.001C669.431 667.186 669.536 671.879 669.66 676.009C669.8 680.139 669.871 683.689 669.888 686.589C669.906 689.437 669.941 691.686 669.941 693.268C669.941 693.989 669.941 694.569 669.923 695.008C669.923 695.395 669.906 695.606 669.888 695.606C669.871 695.606 669.853 695.412 669.818 695.008C669.8 694.569 669.765 693.989 669.73 693.268C669.677 691.669 669.589 689.437 669.484 686.589C669.396 683.689 669.273 680.139 669.097 676.027C668.921 671.914 668.762 667.221 668.446 662.036C667.953 651.667 667.127 639.329 666.071 625.655C664.945 611.981 663.52 596.954 661.726 581.224C659.879 565.494 657.839 550.555 655.816 536.969C653.722 523.4 651.717 511.203 649.835 501.009C648.938 495.895 648.041 491.29 647.267 487.247C646.51 483.188 645.824 479.708 645.244 476.86C644.698 474.066 644.259 471.869 643.96 470.305C643.836 469.602 643.731 469.039 643.643 468.6C643.555 468.196 643.537 468.002 643.555 468.002Z" fill="#263238"/>
<path d="M661.567 686.396C661.567 686.396 619.473 638.679 606.403 609.837L616.271 605.619C609.112 606.796 601.794 603.721 596.253 599.063C590.712 594.406 586.631 588.272 582.638 582.226L595.637 580.029C583.816 576.707 573.403 568.657 567.246 558.059C582.585 560.573 596.464 568.991 607.898 579.519C617.151 588.043 624.996 597.921 632.525 608.027C636.202 612.948 639.421 618.203 642.094 623.739C649.166 638.345 661.603 668.873 661.567 686.396Z" fill="#FF0B53"/>
<path d="M752.828 507.705C752.845 507.705 752.775 507.881 752.634 508.197C752.458 508.567 752.247 509.024 752.001 509.586C751.385 510.869 750.541 512.644 749.45 514.876C747.199 519.463 744.015 526.125 740.145 534.403C732.405 550.941 722.22 574.018 712.158 599.995C702.114 625.989 694.11 649.909 688.692 667.344C685.983 676.062 683.855 683.127 682.43 688.031C681.709 690.421 681.163 692.302 680.759 693.672C680.565 694.27 680.425 694.745 680.301 695.131C680.196 695.465 680.126 695.623 680.108 695.623C680.09 695.623 680.126 695.448 680.196 695.114C680.284 694.727 680.407 694.235 680.565 693.62C680.935 692.249 681.427 690.351 682.061 687.925C683.362 682.987 685.403 675.886 688.024 667.133C693.266 649.628 701.182 625.637 711.226 599.626C721.305 573.631 731.596 550.572 739.512 534.086C743.452 525.843 746.741 519.217 749.099 514.683C750.26 512.468 751.157 510.728 751.808 509.463C752.107 508.918 752.353 508.479 752.529 508.11C752.722 507.846 752.81 507.688 752.828 507.705Z" fill="#263238"/>
<path d="M665.138 706.836C665.103 706.836 665.032 706.538 664.927 705.958C664.804 705.272 664.68 704.429 664.504 703.427C664.17 701.23 663.625 698.049 662.851 694.147C662.095 690.245 661.004 685.64 659.614 680.561C658.189 675.499 656.448 669.998 654.319 664.321C652.156 658.644 649.834 653.372 647.547 648.626C645.225 643.916 642.991 639.733 640.986 636.306C638.98 632.861 637.309 630.119 636.095 628.256C635.55 627.395 635.11 626.674 634.741 626.077C634.442 625.567 634.301 625.303 634.319 625.286C634.354 625.268 634.548 625.497 634.899 625.971C635.304 626.534 635.814 627.219 636.412 628.045C637.731 629.856 639.508 632.545 641.584 635.954C643.677 639.346 645.981 643.512 648.356 648.24C650.696 652.985 653.053 658.293 655.234 663.987C657.38 669.699 659.104 675.253 660.494 680.35C661.831 685.465 662.851 690.105 663.537 694.041C664.223 697.978 664.68 701.177 664.891 703.392C664.979 704.411 665.067 705.255 665.138 705.958C665.173 706.538 665.173 706.836 665.138 706.836Z" fill="#263238"/>
<path d="M720.69 695.623H628.567V714.394H720.69V695.623Z" fill="#455A64"/>
<path d="M637.345 714.394L647.301 777.543H702.958L712.246 714.394H637.345Z" fill="#455A64"/>
<path d="M715.025 714.394C715.025 714.658 697.593 714.886 676.115 714.886C654.619 714.886 637.187 714.658 637.187 714.394C637.187 714.13 654.601 713.902 676.115 713.902C697.61 713.902 715.025 714.13 715.025 714.394Z" fill="#263238"/>
<path d="M173.936 247.955L175.853 225.247C167.955 219.992 161.341 212.575 157.084 203.313C144.806 176.721 156.433 145.226 183.048 132.958C209.663 120.69 241.185 132.308 253.464 158.899C265.742 185.491 254.114 216.987 227.5 229.254C216.382 234.369 204.421 235.318 193.356 232.752L193.391 232.77L173.936 247.955Z" fill="white"/>
<path d="M173.937 247.956C174.869 247.235 181.044 242.49 193.463 232.911L193.656 232.753L193.428 232.63L193.41 232.613L193.304 232.911C197.034 233.773 201.291 234.353 205.97 234.317C210.631 234.247 215.733 233.614 220.922 231.997C223.508 231.189 226.164 230.205 228.732 228.869C230.016 228.184 231.335 227.551 232.637 226.813C233.886 225.987 235.153 225.161 236.419 224.317C241.38 220.731 246.006 216.092 249.718 210.467C253.429 204.861 256.244 198.27 257.616 191.117C259.006 183.981 258.988 176.283 257.176 168.761C255.347 161.238 251.829 153.909 246.727 147.6C241.608 141.325 234.994 135.929 227.254 132.555L224.282 131.289C223.297 130.868 222.241 130.622 221.238 130.27C220.218 129.971 219.215 129.567 218.178 129.374L215.064 128.706C214.044 128.442 212.988 128.337 211.933 128.231C210.895 128.108 209.84 127.985 208.802 127.88C207.746 127.862 206.708 127.845 205.671 127.809C204.633 127.809 203.595 127.722 202.557 127.845C194.272 128.302 186.321 130.674 179.425 134.488C172.53 138.284 166.637 143.487 162.292 149.48C157.93 155.456 154.974 162.117 153.409 168.743C151.826 175.387 151.597 182.013 152.406 188.146C153.233 194.298 155.238 199.852 157.543 204.773C159.97 209.659 162.978 213.807 166.144 217.216C169.311 220.626 172.635 223.28 175.767 225.354L175.696 225.213C174.57 239.748 174.025 246.831 173.937 247.956C174.043 246.849 174.693 239.766 176.013 225.266V225.178L175.942 225.125C172.846 223.034 169.557 220.38 166.443 216.988C163.312 213.596 160.357 209.466 157.965 204.615C155.696 199.711 153.725 194.21 152.934 188.111C152.16 182.03 152.389 175.474 153.989 168.901C155.555 162.328 158.492 155.755 162.82 149.849C167.112 143.926 172.952 138.794 179.777 135.051C186.602 131.289 194.465 128.952 202.645 128.512C203.665 128.389 204.686 128.477 205.723 128.477C206.744 128.495 207.782 128.512 208.819 128.548C209.84 128.671 210.877 128.776 211.915 128.899C212.953 129.005 213.991 129.11 215.011 129.374L218.09 130.024C219.128 130.217 220.095 130.622 221.115 130.903C222.118 131.237 223.156 131.483 224.123 131.905L227.061 133.152C234.713 136.492 241.257 141.8 246.305 148.004C251.354 154.243 254.837 161.484 256.648 168.901C258.443 176.336 258.46 183.946 257.106 190.994C255.751 198.059 252.99 204.58 249.331 210.133C245.672 215.705 241.098 220.31 236.19 223.878C234.924 224.721 233.675 225.547 232.444 226.356C231.16 227.094 229.858 227.727 228.591 228.412C226.058 229.748 223.42 230.732 220.869 231.54C215.715 233.157 210.666 233.808 206.04 233.896C201.396 233.948 197.157 233.403 193.445 232.577L193.34 232.876L193.357 232.894L193.34 232.613C180.973 242.385 174.852 247.235 173.937 247.956Z" fill="#263238"/>
<path d="M197.753 154.085L199.407 184.948C199.547 187.478 201.535 189.5 204.068 189.675C206.724 189.869 209.064 187.935 209.381 185.282L213.11 154.331C213.391 151.993 211.562 149.919 209.187 149.937L201.658 149.972C199.407 149.955 197.63 151.835 197.753 154.085Z" fill="#FF0B53"/>
<path d="M212.144 205.177C210.824 209.114 206.567 211.258 202.627 209.94C198.687 208.622 196.541 204.369 197.842 200.432C199.162 196.495 203.419 194.351 207.359 195.651C211.317 196.969 213.445 201.24 212.144 205.177Z" fill="#FF0B53"/>
</g>
<defs>
<clipPath id="clip0_52_331">
<rect width="791" height="778" fill="white"/>
</clipPath>
</defs>
</svg>
