<svg width="34" height="34" viewBox="0 0 34 34" fill="none" xmlns="http://www.w3.org/2000/svg">
<path d="M19.8333 26.9165H26.9167V7.08321H7.08333V26.9165H17V19.8332H14.1667V16.9999H17V14.6567C17 12.7626 17.1983 12.0755 17.5667 11.3828C17.9295 10.6974 18.4903 10.1371 19.176 9.77488C19.7172 9.48446 20.3901 9.31021 21.5659 9.23513C22.032 9.20538 22.6355 9.24221 23.3764 9.34846V12.0401H22.6667C21.3676 12.0401 20.8307 12.101 20.5105 12.2725C20.3195 12.3707 20.1639 12.5263 20.0657 12.7173C19.8957 13.0375 19.8333 13.3548 19.8333 14.6553V16.9999H23.375L22.6667 19.8332H19.8333V26.9165ZM5.66667 4.24988H28.3333C28.7091 4.24988 29.0694 4.39913 29.3351 4.66481C29.6007 4.93049 29.75 5.29082 29.75 5.66654V28.3332C29.75 28.7089 29.6007 29.0693 29.3351 29.3349C29.0694 29.6006 28.7091 29.7499 28.3333 29.7499H5.66667C5.29094 29.7499 4.93061 29.6006 4.66493 29.3349C4.39926 29.0693 4.25 28.7089 4.25 28.3332V5.66654C4.25 5.29082 4.39926 4.93049 4.66493 4.66481C4.93061 4.39913 5.29094 4.24988 5.66667 4.24988Z" fill="#FF0B53"/>
</svg>
