<svg width="34" height="34" viewBox="0 0 34 34" fill="none" xmlns="http://www.w3.org/2000/svg">
<path d="M16.9997 12.7499C15.8725 12.7499 14.7915 13.1977 13.9945 13.9947C13.1974 14.7917 12.7497 15.8727 12.7497 16.9999C12.7497 18.1271 13.1974 19.2081 13.9945 20.0051C14.7915 20.8022 15.8725 21.2499 16.9997 21.2499C18.1268 21.2499 19.2079 20.8022 20.0049 20.0051C20.8019 19.2081 21.2497 18.1271 21.2497 16.9999C21.2497 15.8727 20.8019 14.7917 20.0049 13.9947C19.2079 13.1977 18.1268 12.7499 16.9997 12.7499ZM16.9997 9.91659C18.8783 9.91659 20.68 10.6629 22.0083 11.9912C23.3367 13.3196 24.083 15.1213 24.083 16.9999C24.083 18.8785 23.3367 20.6802 22.0083 22.0086C20.68 23.337 18.8783 24.0833 16.9997 24.0833C15.1211 24.0833 13.3194 23.337 11.991 22.0086C10.6626 20.6802 9.91634 18.8785 9.91634 16.9999C9.91634 15.1213 10.6626 13.3196 11.991 11.9912C13.3194 10.6629 15.1211 9.91659 16.9997 9.91659V9.91659ZM26.208 9.56242C26.208 10.0321 26.0214 10.4825 25.6893 10.8146C25.3572 11.1467 24.9068 11.3333 24.4372 11.3333C23.9675 11.3333 23.5171 11.1467 23.185 10.8146C22.8529 10.4825 22.6663 10.0321 22.6663 9.56242C22.6663 9.09276 22.8529 8.64235 23.185 8.31025C23.5171 7.97815 23.9675 7.79159 24.4372 7.79159C24.9068 7.79159 25.3572 7.97815 25.6893 8.31025C26.0214 8.64235 26.208 9.09276 26.208 9.56242V9.56242ZM16.9997 5.66659C13.4948 5.66659 12.9225 5.6765 11.2919 5.74875C10.1813 5.80117 9.43609 5.94992 8.74476 6.21909C8.12992 6.45709 7.68651 6.74184 7.21476 7.215C6.77135 7.6434 6.43042 8.16641 6.21742 8.745C5.94826 9.43917 5.79951 10.1829 5.74851 11.2922C5.67484 12.8562 5.66634 13.403 5.66634 16.9999C5.66634 20.5048 5.67626 21.0771 5.74851 22.7077C5.80092 23.8169 5.94967 24.5635 6.21742 25.2534C6.45826 25.8697 6.74159 26.3131 7.21192 26.7834C7.68934 27.2594 8.13276 27.5442 8.74192 27.7793C9.44176 28.0499 10.1869 28.2001 11.2919 28.2511C12.8559 28.3248 13.4028 28.3333 16.9997 28.3333C20.5045 28.3333 21.0768 28.3233 22.7074 28.2511C23.8153 28.1987 24.5618 28.0499 25.2532 27.7822C25.8666 27.5428 26.3128 27.258 26.7832 26.7877C27.2606 26.3103 27.5453 25.8668 27.7805 25.2577C28.0497 24.5593 28.1998 23.8127 28.2508 22.7077C28.3245 21.1437 28.333 20.5968 28.333 16.9999C28.333 13.4951 28.3231 12.9228 28.2508 11.2922C28.1984 10.1843 28.0497 9.43634 27.7805 8.745C27.567 8.167 27.2267 7.6442 26.7846 7.215C26.3564 6.77137 25.8333 6.43041 25.2546 6.21767C24.5604 5.9485 23.8153 5.79975 22.7074 5.74875C21.1434 5.67509 20.5966 5.66659 16.9997 5.66659ZM16.9997 2.83325C20.8488 2.83325 21.329 2.84742 22.8392 2.91825C24.3479 2.98909 25.375 3.22567 26.2788 3.577C27.2138 3.93684 28.0015 4.42417 28.7892 5.21042C29.5095 5.9186 30.0669 6.77525 30.4226 7.72075C30.7725 8.62317 31.0105 9.65167 31.0813 11.1604C31.1479 12.6706 31.1663 13.1508 31.1663 16.9999C31.1663 20.849 31.1522 21.3293 31.0813 22.8394C31.0105 24.3482 30.7725 25.3753 30.4226 26.2791C30.068 27.2251 29.5104 28.082 28.7892 28.7894C28.0808 29.5095 27.2242 30.0669 26.2788 30.4228C25.3764 30.7728 24.3479 31.0108 22.8392 31.0816C21.329 31.1482 20.8488 31.1666 16.9997 31.1666C13.1506 31.1666 12.6703 31.1524 11.1602 31.0816C9.65142 31.0108 8.62434 30.7728 7.72051 30.4228C6.77464 30.0679 5.91784 29.5104 5.21017 28.7894C4.48967 28.0814 3.93224 27.2247 3.57676 26.2791C3.22542 25.3767 2.98884 24.3482 2.91801 22.8394C2.85142 21.3293 2.83301 20.849 2.83301 16.9999C2.83301 13.1508 2.84717 12.6706 2.91801 11.1604C2.98884 9.65025 3.22542 8.62459 3.57676 7.72075C3.93126 6.77467 4.48881 5.91779 5.21017 5.21042C5.91804 4.48966 6.77478 3.9322 7.72051 3.577C8.62434 3.22567 9.65001 2.98909 11.1602 2.91825C12.6703 2.85167 13.1506 2.83325 16.9997 2.83325Z" fill="#FF0B53"/>
</svg>
