<svg width="34" height="34" viewBox="0 0 34 34" fill="none" xmlns="http://www.w3.org/2000/svg">
<path d="M5.66667 4.24988H28.3333C28.7091 4.24988 29.0694 4.39913 29.3351 4.66481C29.6007 4.93049 29.75 5.29082 29.75 5.66654V28.3332C29.75 28.7089 29.6007 29.0693 29.3351 29.3349C29.0694 29.6006 28.7091 29.7499 28.3333 29.7499H5.66667C5.29094 29.7499 4.93061 29.6006 4.66493 29.3349C4.39926 29.0693 4.25 28.7089 4.25 28.3332V5.66654C4.25 5.29082 4.39926 4.93049 4.66493 4.66481C4.93061 4.39913 5.29094 4.24988 5.66667 4.24988ZM7.08333 7.08321V26.9165H26.9167V7.08321H7.08333ZM10.625 12.7499C10.0614 12.7499 9.52091 12.526 9.1224 12.1275C8.72388 11.729 8.5 11.1885 8.5 10.6249C8.5 10.0613 8.72388 9.52079 9.1224 9.12228C9.52091 8.72376 10.0614 8.49988 10.625 8.49988C11.1886 8.49988 11.7291 8.72376 12.1276 9.12228C12.5261 9.52079 12.75 10.0613 12.75 10.6249C12.75 11.1885 12.5261 11.729 12.1276 12.1275C11.7291 12.526 11.1886 12.7499 10.625 12.7499ZM9.20833 14.1665H12.0417V24.7915H9.20833V14.1665ZM17 14.7757C17.8273 13.9753 18.7935 13.4582 19.8333 13.4582C22.7673 13.4582 24.7917 15.8368 24.7917 18.7707V24.7915H21.9583V18.7707C21.9583 18.1132 21.6971 17.4826 21.2322 17.0177C20.7673 16.5527 20.1367 16.2915 19.4792 16.2915C18.8217 16.2915 18.1911 16.5527 17.7261 17.0177C17.2612 17.4826 17 18.1132 17 18.7707V24.7915H14.1667V14.1665H17V14.7757Z" fill="#FF0B53"/>
</svg>
