<svg width="24" height="24" viewBox="0 0 24 24" fill="none" xmlns="http://www.w3.org/2000/svg">
<path d="M3 2.99988H21C21.2652 2.99988 21.5196 3.10523 21.7071 3.29277C21.8946 3.48031 22 3.73466 22 3.99988V19.9999C22 20.2651 21.8946 20.5194 21.7071 20.707C21.5196 20.8945 21.2652 20.9999 21 20.9999H3C2.73478 20.9999 2.48043 20.8945 2.29289 20.707C2.10536 20.5194 2 20.2651 2 19.9999V3.99988C2 3.73466 2.10536 3.48031 2.29289 3.29277C2.48043 3.10523 2.73478 2.99988 3 2.99988ZM20 7.23788L12.072 14.3379L4 7.21588V18.9999H20V7.23788ZM4.511 4.99988L12.061 11.6619L19.502 4.99988H4.511Z" fill="#FF0B53"/>
</svg>
