<svg width="14" height="12" viewBox="0 0 14 12" fill="none" xmlns="http://www.w3.org/2000/svg">
<path d="M0.999674 0H12.9997C13.1765 0 13.3461 0.0702379 13.4711 0.195262C13.5961 0.320286 13.6663 0.489856 13.6663 0.666667V11.3333C13.6663 11.5101 13.5961 11.6797 13.4711 11.8047C13.3461 11.9298 13.1765 12 12.9997 12H0.999674C0.822863 12 0.653294 11.9298 0.52827 11.8047C0.403246 11.6797 0.333008 11.5101 0.333008 11.3333V0.666667C0.333008 0.489856 0.403246 0.320286 0.52827 0.195262C0.653294 0.0702379 0.822863 0 0.999674 0V0ZM12.333 2.82533L7.04767 7.55867L1.66634 2.81067V10.6667H12.333V2.82533ZM2.00701 1.33333L7.04034 5.77467L12.001 1.33333H2.00701Z" fill="#FF0B53"/>
</svg>
