<svg width="24" height="24" viewBox="0 0 24 24" fill="none" xmlns="http://www.w3.org/2000/svg">
<path d="M9.366 10.6819C10.3043 12.3304 11.6695 13.6955 13.318 14.6339L14.202 13.3959C14.3442 13.1968 14.5543 13.0568 14.7928 13.0022C15.0313 12.9477 15.2814 12.9824 15.496 13.0999C16.9103 13.8728 18.4722 14.3377 20.079 14.4639C20.3298 14.4838 20.5638 14.5974 20.7345 14.7822C20.9052 14.967 21 15.2093 21 15.4609V19.9229C21.0001 20.1705 20.9083 20.4093 20.7424 20.5931C20.5765 20.7769 20.3483 20.8926 20.102 20.9179C19.572 20.9729 19.038 20.9999 18.5 20.9999C9.94 20.9999 3 14.0599 3 5.49988C3 4.96188 3.027 4.42788 3.082 3.89788C3.10725 3.65158 3.22298 3.4234 3.40679 3.25751C3.5906 3.09163 3.82941 2.99982 4.077 2.99988H8.539C8.79056 2.99985 9.0329 3.09463 9.21768 3.26533C9.40247 3.43603 9.51613 3.6701 9.536 3.92088C9.66222 5.52767 10.1271 7.08956 10.9 8.50388C11.0175 8.71844 11.0522 8.96862 10.9977 9.20707C10.9431 9.44553 10.8031 9.65572 10.604 9.79788L9.366 10.6819ZM6.844 10.0249L8.744 8.66788C8.20478 7.50397 7.83535 6.26872 7.647 4.99988H5.01C5.004 5.16588 5.001 5.33288 5.001 5.49988C5 12.9559 11.044 18.9999 18.5 18.9999C18.667 18.9999 18.834 18.9969 19 18.9899V16.3529C17.7312 16.1645 16.4959 15.7951 15.332 15.2559L13.975 17.1559C13.4287 16.9436 12.898 16.693 12.387 16.4059L12.329 16.3729C10.3676 15.2566 8.74328 13.6323 7.627 11.6709L7.594 11.6129C7.30691 11.1019 7.05628 10.5712 6.844 10.0249Z" fill="#FF0B53"/>
</svg>
