<svg width="34" height="34" viewBox="0 0 34 34" fill="none" xmlns="http://www.w3.org/2000/svg">
<path d="M21.6753 7.86238C20.5986 7.8622 19.5649 8.28472 18.7965 9.03901C18.0282 9.79331 17.5867 10.8191 17.567 11.8956L17.5273 14.1269C17.525 14.2467 17.4974 14.3646 17.4463 14.473C17.3951 14.5814 17.3217 14.6777 17.2307 14.7557C17.1398 14.8337 17.0333 14.8916 16.9184 14.9255C16.8035 14.9595 16.6827 14.9688 16.564 14.9528L14.3526 14.6525C11.4427 14.2558 8.65473 12.9156 5.98006 10.6872C5.1329 15.3764 6.78756 18.6248 10.7726 21.1309L13.2476 22.6864C13.3652 22.7603 13.4628 22.8619 13.5321 22.9823C13.6013 23.1026 13.64 23.2382 13.6448 23.377C13.6495 23.5158 13.6202 23.6536 13.5594 23.7785C13.4985 23.9033 13.408 24.0114 13.2957 24.0931L11.0404 25.7407C12.382 25.8243 13.6556 25.7648 14.7124 25.5551C21.3962 24.2206 25.8403 19.1915 25.8403 10.8955C25.8403 10.2183 24.4066 7.86238 21.6753 7.86238V7.86238ZM14.7336 11.8432C14.7584 10.4776 15.1854 9.14966 15.9613 8.02561C16.7371 6.90156 17.8274 6.03136 19.0954 5.52398C20.3635 5.0166 21.7531 4.89457 23.0902 5.17319C24.4273 5.4518 25.6525 6.11867 26.6124 7.09029C27.6196 7.08321 28.4767 7.33821 30.3935 6.17654C29.9189 8.49988 29.6851 9.50854 28.6736 10.8955C28.6736 21.7216 22.0196 26.986 15.2677 28.3332C10.6381 29.2569 3.90606 27.7396 1.97656 25.7251C2.95973 25.6486 6.95473 25.2194 9.2639 23.5293C7.31031 22.2415 -0.465771 17.6657 4.64415 5.36338C7.04256 8.16413 9.47498 10.071 11.94 11.0825C13.5805 11.7554 13.9828 11.7412 14.7351 11.8446L14.7336 11.8432Z" fill="#FF0B53"/>
</svg>
