<svg width="26" height="22" viewBox="0 0 26 22" fill="none" xmlns="http://www.w3.org/2000/svg">
<path d="M18.1254 2.93752C17.1754 2.93736 16.2632 3.31017 15.5853 3.97573C14.9073 4.64129 14.5178 5.54639 14.5004 6.49627L14.4654 8.46502C14.4633 8.57073 14.439 8.6748 14.3939 8.77043C14.3488 8.86605 14.284 8.95106 14.2037 9.01987C14.1234 9.08869 14.0295 9.13975 13.9281 9.16972C13.8267 9.19969 13.7202 9.20789 13.6154 9.19377L11.6641 8.92877C9.09664 8.57877 6.63664 7.39627 4.27664 5.43002C3.52914 9.56752 4.98914 12.4338 8.50539 14.645L10.6891 16.0175C10.7929 16.0827 10.8791 16.1724 10.9402 16.2786C11.0013 16.3848 11.0354 16.5044 11.0396 16.6269C11.0438 16.7493 11.0179 16.871 10.9643 16.9811C10.9106 17.0913 10.8307 17.1866 10.7316 17.2588L8.74164 18.7125C9.92539 18.7863 11.0491 18.7338 11.9816 18.5488C17.8791 17.3713 21.8004 12.9338 21.8004 5.61377C21.8004 5.01627 20.5354 2.93752 18.1254 2.93752ZM12.0004 6.45002C12.0222 5.24508 12.399 4.07336 13.0836 3.08155C13.7682 2.08974 14.7301 1.32192 15.849 0.87423C16.9679 0.426539 18.194 0.31887 19.3738 0.564705C20.5536 0.81054 21.6347 1.39895 22.4816 2.25627C23.3704 2.25002 24.1266 2.47502 25.8179 1.45002C25.3991 3.50002 25.1929 4.39002 24.3004 5.61377C24.3004 15.1663 18.4291 19.8113 12.4716 21C8.38664 21.815 2.44664 20.4763 0.744141 18.6988C1.61164 18.6313 5.13664 18.2525 7.17414 16.7613C5.45039 15.625 -1.41086 11.5875 3.09789 0.732521C5.21414 3.20377 7.36039 4.88627 9.53539 5.77877C10.9829 6.37252 11.3379 6.36002 12.0016 6.45127L12.0004 6.45002Z" fill="white"/>
</svg>
